<?xml version="1.0" encoding="UTF-8"?><svg id="flag-icons-gb" xmlns="http://www.w3.org/2000/svg" width="8.8889in" height="6.6667in" xmlns:xlink="http://www.w3.org/1999/xlink" viewBox="0 0 640 480"><defs><clipPath id="clippath"><rect y="-.0024" width="640" height="480.0024" fill="none"/></clipPath></defs><g clip-path="url(#clippath)"><rect y="-.0024" width="791.2132" height="36.9233" fill="#bd1c12"/><rect y="36.9209" width="791.2132" height="36.9233" fill="#fff"/><rect y="73.8442" width="791.2132" height="36.9233" fill="#bd1c12"/><rect y="110.7675" width="791.2132" height="36.9233" fill="#fff"/><rect y="147.6908" width="791.2132" height="36.9233" fill="#bd1c12"/><rect y="184.6142" width="791.2132" height="36.9233" fill="#fff"/><rect y="221.5375" width="791.2132" height="36.9227" fill="#bd1c12"/><rect y="258.4601" width="791.2132" height="36.9233" fill="#fff"/><rect y="295.3834" width="791.2132" height="36.9233" fill="#bd1c12"/><rect y="332.3068" width="791.2132" height="36.9233" fill="#fff"/><rect y="369.2301" width="791.2132" height="36.9233" fill="#bd1c12"/><rect y="406.1534" width="791.2132" height="36.9233" fill="#fff"/><rect y="443.0767" width="791.2132" height="36.9233" fill="#bd1c12"/><rect y="-.0024" width="329.6724" height="258.4625" fill="#002550"/><polygon points="25.7415 30.0532 16.4405 36.9209 20.0978 25.9528 10.6918 19.2294 22.2535 19.3183 25.7415 8.2948 29.2295 19.3183 40.7912 19.2294 31.3852 25.9528 35.0426 36.9209 25.7415 30.0532" fill="#fff"/><polygon points="81.4697 30.0532 72.1687 36.9209 75.826 25.9528 66.42 19.2294 77.9818 19.3183 81.4697 8.2948 84.9576 19.3183 96.5194 19.2294 87.1134 25.9528 90.7707 36.9209 81.4697 30.0532" fill="#fff"/><polygon points="137.1985 30.0532 127.8975 36.9209 131.5547 25.9528 122.1488 19.2294 133.7105 19.3183 137.1985 8.2948 140.6864 19.3183 152.2481 19.2294 142.8422 25.9528 146.4994 36.9209 137.1985 30.0532" fill="#fff"/><polygon points="192.9267 30.0532 183.6257 36.9209 187.2829 25.9528 177.877 19.2294 189.4387 19.3183 192.9267 8.2948 196.4146 19.3183 207.9764 19.2294 198.5704 25.9528 202.2277 36.9209 192.9267 30.0532" fill="#fff"/><polygon points="248.6554 30.0532 239.3545 36.9209 243.0117 25.9528 233.6057 19.2294 245.1675 19.3183 248.6554 8.2948 252.1434 19.3183 263.7051 19.2294 254.2992 25.9528 257.9564 36.9209 248.6554 30.0532" fill="#fff"/><polygon points="52.1153 56.427 42.8143 63.2947 46.4715 52.3266 37.0656 45.6032 48.6273 45.692 52.1153 34.6686 55.6033 45.692 67.165 45.6032 57.759 52.3266 61.4164 63.2947 52.1153 56.427" fill="#fff"/><polygon points="107.8435 56.427 98.5425 63.2947 102.1998 52.3266 92.7938 45.6032 104.3556 45.692 107.8435 34.6686 111.3314 45.692 122.8932 45.6032 113.4872 52.3266 117.1445 63.2947 107.8435 56.427" fill="#fff"/><polygon points="163.5722 56.427 154.2713 63.2947 157.9285 52.3266 148.5226 45.6032 160.0843 45.692 163.5722 34.6686 167.0602 45.692 178.6219 45.6032 169.216 52.3266 172.8732 63.2947 163.5722 56.427" fill="#fff"/><polygon points="219.3005 56.427 209.9995 63.2947 213.6567 52.3266 204.2508 45.6032 215.8125 45.692 219.3005 34.6686 222.7884 45.692 234.3501 45.6032 224.9442 52.3266 228.6015 63.2947 219.3005 56.427" fill="#fff"/><polygon points="275.0292 56.427 265.7282 63.2947 269.3855 52.3266 259.9795 45.6032 271.5413 45.692 275.0292 34.6686 278.5172 45.692 290.0789 45.6032 280.673 52.3266 284.3302 63.2947 275.0292 56.427" fill="#fff"/><polygon points="52.1153 109.1746 42.8143 116.0423 46.4715 105.0742 37.0656 98.3508 48.6273 98.4396 52.1153 87.4162 55.6033 98.4396 67.165 98.3508 57.759 105.0742 61.4164 116.0423 52.1153 109.1746" fill="#fff"/><polygon points="107.8435 109.1746 98.5425 116.0423 102.1998 105.0742 92.7938 98.3508 104.3556 98.4396 107.8435 87.4162 111.3314 98.4396 122.8932 98.3508 113.4872 105.0742 117.1445 116.0423 107.8435 109.1746" fill="#fff"/><polygon points="163.5722 109.1746 154.2713 116.0423 157.9285 105.0742 148.5226 98.3508 160.0843 98.4396 163.5722 87.4162 167.0602 98.4396 178.6219 98.3508 169.216 105.0742 172.8732 116.0423 163.5722 109.1746" fill="#fff"/><polygon points="219.3005 109.1746 209.9995 116.0423 213.6567 105.0742 204.2508 98.3508 215.8125 98.4396 219.3005 87.4162 222.7884 98.4396 234.3501 98.3508 224.9442 105.0742 228.6015 116.0423 219.3005 109.1746" fill="#fff"/><polygon points="275.0292 109.1746 265.7282 116.0423 269.3855 105.0742 259.9795 98.3508 271.5413 98.4396 275.0292 87.4162 278.5172 98.4396 290.0789 98.3508 280.673 105.0742 284.3302 116.0423 275.0292 109.1746" fill="#fff"/><polygon points="52.1153 161.9221 42.8143 168.7899 46.4715 157.8218 37.0656 151.0983 48.6273 151.1872 52.1153 140.1638 55.6033 151.1872 67.165 151.0983 57.759 157.8218 61.4164 168.7899 52.1153 161.9221" fill="#fff"/><polygon points="107.8435 161.9221 98.5425 168.7899 102.1998 157.8218 92.7938 151.0983 104.3556 151.1872 107.8435 140.1638 111.3314 151.1872 122.8932 151.0983 113.4872 157.8218 117.1445 168.7899 107.8435 161.9221" fill="#fff"/><polygon points="163.5722 161.9221 154.2713 168.7899 157.9285 157.8218 148.5226 151.0983 160.0843 151.1872 163.5722 140.1638 167.0602 151.1872 178.6219 151.0983 169.216 157.8218 172.8732 168.7899 163.5722 161.9221" fill="#fff"/><polygon points="219.3005 161.9221 209.9995 168.7899 213.6567 157.8218 204.2508 151.0983 215.8125 151.1872 219.3005 140.1638 222.7884 151.1872 234.3501 151.0983 224.9442 157.8218 228.6015 168.7899 219.3005 161.9221" fill="#fff"/><polygon points="275.0292 161.9221 265.7282 168.7899 269.3855 157.8218 259.9795 151.0983 271.5413 151.1872 275.0292 140.1638 278.5172 151.1872 290.0789 151.0983 280.673 157.8218 284.3302 168.7899 275.0292 161.9221" fill="#fff"/><polygon points="52.1153 214.6697 42.8143 221.5375 46.4715 210.5694 37.0656 203.8459 48.6273 203.9348 52.1153 192.9114 55.6033 203.9348 67.165 203.8459 57.759 210.5694 61.4164 221.5375 52.1153 214.6697" fill="#fff"/><polygon points="107.8435 214.6697 98.5425 221.5375 102.1998 210.5694 92.7938 203.8459 104.3556 203.9348 107.8435 192.9114 111.3314 203.9348 122.8932 203.8459 113.4872 210.5694 117.1445 221.5375 107.8435 214.6697" fill="#fff"/><polygon points="163.5722 214.6697 154.2713 221.5375 157.9285 210.5694 148.5226 203.8459 160.0843 203.9348 163.5722 192.9114 167.0602 203.9348 178.6219 203.8459 169.216 210.5694 172.8732 221.5375 163.5722 214.6697" fill="#fff"/><polygon points="219.3005 214.6697 209.9995 221.5375 213.6567 210.5694 204.2508 203.8459 215.8125 203.9348 219.3005 192.9114 222.7884 203.9348 234.3501 203.8459 224.9442 210.5694 228.6015 221.5375 219.3005 214.6697" fill="#fff"/><polygon points="275.0292 214.6697 265.7282 221.5375 269.3855 210.5694 259.9795 203.8459 271.5413 203.9348 275.0292 192.9114 278.5172 203.9348 290.0789 203.8459 280.673 210.5694 284.3302 221.5375 275.0292 214.6697" fill="#fff"/><polygon points="304.3836 30.0532 295.0827 36.9209 298.7399 25.9528 289.334 19.2294 300.8957 19.3183 304.3836 8.2948 307.8716 19.3183 319.4333 19.2294 310.0274 25.9528 313.6846 36.9209 304.3836 30.0532" fill="#fff"/><polygon points="25.7415 82.4389 16.4405 89.3067 20.0978 78.3386 10.6918 71.6151 22.2535 71.704 25.7415 60.6805 29.2295 71.704 40.7912 71.6151 31.3852 78.3386 35.0426 89.3067 25.7415 82.4389" fill="#fff"/><polygon points="81.4697 82.4389 72.1687 89.3067 75.826 78.3386 66.42 71.6151 77.9818 71.704 81.4697 60.6805 84.9576 71.704 96.5194 71.6151 87.1134 78.3386 90.7707 89.3067 81.4697 82.4389" fill="#fff"/><polygon points="137.1985 82.4389 127.8975 89.3067 131.5547 78.3386 122.1488 71.6151 133.7105 71.704 137.1985 60.6805 140.6864 71.704 152.2481 71.6151 142.8422 78.3386 146.4994 89.3067 137.1985 82.4389" fill="#fff"/><polygon points="192.9267 82.4389 183.6257 89.3067 187.2829 78.3386 177.877 71.6151 189.4387 71.704 192.9267 60.6805 196.4146 71.704 207.9764 71.6151 198.5704 78.3386 202.2277 89.3067 192.9267 82.4389" fill="#fff"/><polygon points="248.6554 82.4389 239.3545 89.3067 243.0117 78.3386 233.6057 71.6151 245.1675 71.704 248.6554 60.6805 252.1434 71.704 263.7051 71.6151 254.2992 78.3386 257.9564 89.3067 248.6554 82.4389" fill="#fff"/><polygon points="304.3836 82.4389 295.0827 89.3067 298.7399 78.3386 289.334 71.6151 300.8957 71.704 304.3836 60.6805 307.8716 71.704 319.4333 71.6151 310.0274 78.3386 313.6846 89.3067 304.3836 82.4389" fill="#fff"/><polygon points="25.7415 134.8253 16.4405 141.6931 20.0978 130.725 10.6918 124.0014 22.2535 124.0903 25.7415 113.0669 29.2295 124.0903 40.7912 124.0014 31.3852 130.725 35.0426 141.6931 25.7415 134.8253" fill="#fff"/><polygon points="81.4697 134.8253 72.1687 141.6931 75.826 130.725 66.42 124.0014 77.9818 124.0903 81.4697 113.0669 84.9576 124.0903 96.5194 124.0014 87.1134 130.725 90.7707 141.6931 81.4697 134.8253" fill="#fff"/><polygon points="137.1985 134.8253 127.8975 141.6931 131.5547 130.725 122.1488 124.0014 133.7105 124.0903 137.1985 113.0669 140.6864 124.0903 152.2481 124.0014 142.8422 130.725 146.4994 141.6931 137.1985 134.8253" fill="#fff"/><polygon points="192.9267 134.8253 183.6257 141.6931 187.2829 130.725 177.877 124.0014 189.4387 124.0903 192.9267 113.0669 196.4146 124.0903 207.9764 124.0014 198.5704 130.725 202.2277 141.6931 192.9267 134.8253" fill="#fff"/><polygon points="248.6554 134.8253 239.3545 141.6931 243.0117 130.725 233.6057 124.0014 245.1675 124.0903 248.6554 113.0669 252.1434 124.0903 263.7051 124.0014 254.2992 130.725 257.9564 141.6931 248.6554 134.8253" fill="#fff"/><polygon points="304.3836 134.8253 295.0827 141.6931 298.7399 130.725 289.334 124.0014 300.8957 124.0903 304.3836 113.0669 307.8716 124.0903 319.4333 124.0014 310.0274 130.725 313.6846 141.6931 304.3836 134.8253" fill="#fff"/><polygon points="25.7415 187.2109 16.4405 194.0787 20.0978 183.1107 10.6918 176.3871 22.2535 176.476 25.7415 165.4525 29.2295 176.476 40.7912 176.3871 31.3852 183.1107 35.0426 194.0787 25.7415 187.2109" fill="#fff"/><polygon points="81.4697 187.2109 72.1687 194.0787 75.826 183.1107 66.42 176.3871 77.9818 176.476 81.4697 165.4525 84.9576 176.476 96.5194 176.3871 87.1134 183.1107 90.7707 194.0787 81.4697 187.2109" fill="#fff"/><polygon points="137.1985 187.2109 127.8975 194.0787 131.5547 183.1107 122.1488 176.3871 133.7105 176.476 137.1985 165.4525 140.6864 176.476 152.2481 176.3871 142.8422 183.1107 146.4994 194.0787 137.1985 187.2109" fill="#fff"/><polygon points="192.9267 187.2109 183.6257 194.0787 187.2829 183.1107 177.877 176.3871 189.4387 176.476 192.9267 165.4525 196.4146 176.476 207.9764 176.3871 198.5704 183.1107 202.2277 194.0787 192.9267 187.2109" fill="#fff"/><polygon points="248.6554 187.2109 239.3545 194.0787 243.0117 183.1107 233.6057 176.3871 245.1675 176.476 248.6554 165.4525 252.1434 176.476 263.7051 176.3871 254.2992 183.1107 257.9564 194.0787 248.6554 187.2109" fill="#fff"/><polygon points="304.3836 187.2109 295.0827 194.0787 298.7399 183.1107 289.334 176.3871 300.8957 176.476 304.3836 165.4525 307.8716 176.476 319.4333 176.3871 310.0274 183.1107 313.6846 194.0787 304.3836 187.2109" fill="#fff"/><polygon points="25.7415 239.5967 16.4405 246.4644 20.0978 235.4965 10.6918 228.7729 22.2535 228.8617 25.7415 217.8383 29.2295 228.8617 40.7912 228.7729 31.3852 235.4965 35.0426 246.4644 25.7415 239.5967" fill="#fff"/><polygon points="81.4697 239.5967 72.1687 246.4644 75.826 235.4965 66.42 228.7729 77.9818 228.8617 81.4697 217.8383 84.9576 228.8617 96.5194 228.7729 87.1134 235.4965 90.7707 246.4644 81.4697 239.5967" fill="#fff"/><polygon points="137.1985 239.5967 127.8975 246.4644 131.5547 235.4965 122.1488 228.7729 133.7105 228.8617 137.1985 217.8383 140.6864 228.8617 152.2481 228.7729 142.8422 235.4965 146.4994 246.4644 137.1985 239.5967" fill="#fff"/><polygon points="192.9267 239.5967 183.6257 246.4644 187.2829 235.4965 177.877 228.7729 189.4387 228.8617 192.9267 217.8383 196.4146 228.8617 207.9764 228.7729 198.5704 235.4965 202.2277 246.4644 192.9267 239.5967" fill="#fff"/><polygon points="248.6554 239.5967 239.3545 246.4644 243.0117 235.4965 233.6057 228.7729 245.1675 228.8617 248.6554 217.8383 252.1434 228.8617 263.7051 228.7729 254.2992 235.4965 257.9564 246.4644 248.6554 239.5967" fill="#fff"/><polygon points="304.3836 239.5967 295.0827 246.4644 298.7399 235.4965 289.334 228.7729 300.8957 228.8617 304.3836 217.8383 307.8716 228.8617 319.4333 228.7729 310.0274 235.4965 313.6846 246.4644 304.3836 239.5967" fill="#fff"/></g></svg>