<?xml version="1.0" encoding="UTF-8"?><svg id="Layer_1" xmlns="http://www.w3.org/2000/svg" width="122.6854" height="32.057" xmlns:xlink="http://www.w3.org/1999/xlink" viewBox="0 0 122.6854 32.057"><defs><linearGradient id="linear-gradient" x1="-234.0387" y1="8596.6233" x2="-187.1991" y2="8550.6509" gradientTransform="translate(190.6909 8598.4566) rotate(.2934) scale(1 -1)" gradientUnits="userSpaceOnUse"><stop offset="0" stop-color="#3b916f"/><stop offset="1" stop-color="#096aa5"/></linearGradient></defs><g id="text23979"><path id="path42477" d="M44.7198,25.1876c-1.0895-.0056-2.0755-.1843-2.958-.5362-.8666-.3676-1.6139-.9083-2.2419-1.6221-.6122-.7137-1.0814-1.5925-1.4077-2.6363-.3262-1.0596-.4857-2.2842-.4786-3.6738s.1792-2.6203.5163-3.6924c.3372-1.0878.8155-1.9933,1.4351-2.7165.6354-.7389,1.3883-1.2956,2.2587-1.6701.8862-.3744,1.8741-.5589,2.9636-.5533,1.4843.0076,2.7143.3297,3.6901.9663s1.7525,1.5959,2.3302,2.8779l-2.6837,1.4074c-.2331-.7434-.6169-1.3375-1.1515-1.7823-.5345-.4607-1.2676-.6934-2.1992-.6982-1.1685-.006-2.1021.384-2.8009,1.17-.683.786-1.0282,1.8896-1.0354,3.3107l-.0133,2.6054c-.0074,1.4369.3265,2.544,1.0015,3.3212.6909.7615,1.6206,1.1452,2.789,1.1512.9316.0048,1.6908-.244,2.2777-.7463.6026-.5022,1.04-1.1237,1.3123-1.8645l2.5267,1.5052c-.6063,1.2286-1.4087,2.1877-2.407,2.8774-.9983.6739-2.2395,1.007-3.7238.9994h0Z" fill="#232323"/><path id="path42479" d="M57.7467,25.2543c-.8843-.0045-1.6809-.1586-2.3899-.4623-.6932-.3036-1.291-.7409-1.7934-1.3119-.4866-.571-.8621-1.2519-1.1265-2.0428-.2643-.8067-.3939-1.7074-.3888-2.7022s.1439-1.8862.4164-2.6744c.2725-.7881.6549-1.4573,1.1472-2.0074.5082-.5659,1.1104-.997,1.8068-1.2935.7121-.2964,1.5103-.4423,2.3945-.4378s1.6809.1586,2.3899.4623c.709.3037,1.3068.741,1.7934,1.3119.5025.5552.8859,1.2283,1.1503,2.0192.2644.7909.394,1.6837.3889,2.6785s-.1439,1.8941-.4165,2.6981c-.2725.7881-.6628,1.4651-1.171,2.031-.4924.5659-1.0947.9971-1.8068,1.2935-.7121.2964-1.5103.4423-2.3945.4378ZM57.7592,22.8147c.8053.0041,1.4382-.2374,1.8986-.7245.4604-.4872.6931-1.2044.6979-2.1518l.0118-2.2975c.0048-.9316-.2206-1.6434-.676-2.1352-.4554-.4918-1.0858-.7398-1.8911-.7439-.7895-.004-1.4145.2375-1.8749.7247-.4604.4872-.693,1.1965-.6978,2.1282l-.0118,2.2975c-.0049.9474.2204,1.667.6758,2.1589.4554.4918,1.0779.7398,1.8674.7438Z" fill="#232323"/><path id="path42481" d="M67.2948,10.8548c-.6316-.0032-1.0888-.1477-1.3716-.4334-.267-.2856-.3993-.6495-.3971-1.0916l.0024-.4737c.0023-.4421.1383-.8046.4082-1.0875.2857-.2828.7443-.4225,1.3759-.4193.6158.0032,1.0651.1476,1.3479.4332.2828.2857.423.6496.4208,1.0917l-.0024.4737c-.0023.4421-.1462.8046-.4319,1.0873-.2857.2828-.7364.4226-1.3522.4194h0ZM65.7697,12.6471l3.0317.0155-.0633,12.3637-3.0317-.0155.0633-12.3637Z" fill="#232323"/><path id="path42483" d="M71.7698,25.0419l.0633-12.3637,3.0317.0155-.0106,2.0606.1184.0006c.256-.6619.6536-1.2125,1.1928-1.6519.555-.4551,1.3141-.6802,2.2773-.6752,1.279.0065,2.2559.43,2.9306,1.2704.6747.8404,1.0081,2.0343,1.0002,3.5817l-.04,7.8162-3.0317-.0155.0384-7.5082c.0045-.8843-.15-1.5482-.4635-1.992-.3135-.4437-.8335-.6675-1.5598-.6712-.3158-.0016-.624.0442-.9245.1374-.2846.0775-.5458.2025-.7836.375-.2219.1568-.4045.3611-.5479.613-.1433.2361-.2158.52-.2175.8516l-.0418,8.1714-3.0317-.0155Z" fill="#232323"/><path id="path42485" d="M89.2718,25.4157c-1.1843-.0061-2.178-.2085-2.9813-.6074-.8032-.4147-1.5109-.9789-2.1231-1.6926l1.8567-1.7906c.4552.5234.9505.9365,1.4859,1.2393.5511.3028,1.182.4561,1.8925.4597.7264.0037,1.2481-.1199,1.5652-.371.3329-.2509.5005-.5975.5027-1.0396.0019-.3632-.1151-.648-.3509-.8545-.2199-.2222-.606-.3742-1.1583-.456l-1.2308-.1721c-1.3413-.1806-2.3657-.5648-3.0733-1.1527-.6917-.6036-1.0346-1.4738-1.0288-2.6107.0031-.6.1164-1.1363.3398-1.6089.2236-.4884.5415-.8973.9537-1.2268.4123-.3453.9031-.6033,1.4725-.7741.5852-.1865,1.2331-.2779,1.9437-.2743.6.0031,1.1288.0532,1.5862.1502.4733.0814.899.2099,1.2771.3855.3781.1598.7245.3669,1.039.6212.3146.2385.6211.5085.9196.81l-1.7855,1.7673c-.3612-.3808-.7938-.6989-1.2978-.9541s-1.056-.3844-1.656-.3875c-.6632-.0034-1.1454.1126-1.4466.3479-.2854.2354-.4291.5426-.4311.9215-.0021.4105.1147.727.3504.9492.2516.2066.6693.3587,1.253.4564l1.2545.1722c2.6666.3926,3.9946,1.6153,3.9841,3.668-.0031.6-.1322,1.152-.3875,1.656-.2394.4883-.581.9129-1.025,1.2738-.4439.3451-.9822.6187-1.6149.8207-.6168.1863-1.312.2775-2.0858.2736h0Z" fill="#232323"/><path id="path42487" d="M103.9687,23.1461l-.1184-.0006c-.1121.3152-.2637.6145-.4546.8977-.1751.2675-.4053.5111-.6906.7307-.2696.2197-.6021.3917-.9975.516-.3796.1244-.8221.1853-1.3274.1827-1.279-.0065-2.2559-.43-2.9306-1.2704-.6747-.8404-1.0081-2.0343-1.0002-3.5817l.04-7.8162,3.0317.0155-.0384,7.5082c-.0044.8527.1581,1.5088.4873,1.9684.3293.4438.8572.6676,1.5835.6713.3.0015.5923-.0364.877-.1139.3004-.0774.5616-.1945.7834-.3513.2219-.1726.4046-.3769.5479-.613.1434-.2519.216-.5437.2177-.8753l.0418-8.1714,3.0317.0155-.0633,12.3637-3.0317-.0155.0106-2.0606Z" fill="#232323"/><path id="path42489" d="M113.0533,25.2533c-1.0422-.0053-1.8066-.2698-2.2935-.7934-.4868-.5236-.7278-1.2591-.723-2.2065l.0745-14.5428,3.0317.0155-.0774,15.1112,1.6343.0084-.0124,2.4159-1.6343-.0084Z" fill="#232323"/><path id="path42491" d="M120.2535,25.2901c-1.0422-.0053-1.8382-.2779-2.3881-.8175-.534-.5554-.7985-1.3384-.7933-2.349l.0348-6.7977-1.8238-.0093.0124-2.4159.9474.0049c.4579.0023.7663-.0987.9253-.3032.1748-.2202.2633-.5434.2655-.9698l.0108-2.108,2.7238.0139-.0173,3.387,2.5343.013-.0124,2.4159-2.5343-.013-.0386,7.5319,2.3448.012-.0124,2.4159-2.1791-.0112Z" fill="#232323"/></g><path id="path23981" d="M10.5866.0001l21.5768.1105-.1105,21.5768c-.0295,5.7564-4.7198,10.3989-10.4762,10.3694l-21.5768-.1105L.1105,10.3696C.14,4.6132,4.8303-.0293,10.5866.0001Z" fill="url(#linear-gradient)"/><path id="path23983" d="M25.381,12.6685h0l-2.1444.9693-1.5054.6806-.0671.0298-2.0698.9222c0-.008-.0033-.0161-.0059-.0241-.1193-.5087-.3519-.984-.6806-1.3902l-.1887-.4181,2.0652-.9336,1.5276-.6906,2.1631-.9779c.1187.1872.2293.3786.3319.5742l.5575,1.2329.0166.0255Z" fill="#fff"/><path id="path23985" d="M25.7009,18.3223c-.1621.6739-.3955,1.3286-.6963,1.953l-6.6853-1.1766.0648-.3686c.4901-.394.8633-.9144,1.0791-1.5051l6.2378,1.0973Z" fill="#fff"/><path id="path23987" d="M13.6348,19.3245l-2.7129,1.9005-1.9394,1.3587c-.4588-.5064-.8633-1.0594-1.2069-1.6501l1.9294-1.3521,1.3555-.9499,1.4018-.9818,1.1726,1.6747Z" fill="#fff"/><path id="path23989" d="M13.9357,10.9178l-.8452,1.8612-1.2212-.5547-1.5465-.7023-2.1772-.9894c.4008-.5878.8647-1.13,1.3836-1.6167l2.3756,1.0788,1.8164.8262.2144.0969Z" fill="#fff"/><path id="path23991" d="M23.3868,17.9147c-1.0419,3.962-5.0984,6.3292-9.0604,5.2873-1.292-.3398-2.4682-1.0221-3.4045-1.975-.4792-.489-.8887-1.0418-1.217-1.6427l-1.9294,1.3521c2.7031,4.661,8.6728,6.2483,13.3338,3.5452,2.3085-1.3387,3.9678-3.5646,4.5915-6.1593l-2.3141-.4076Z" fill="#fff"/><path id="path23993" d="M11.9048,9.9947c3.3375-2.3796,7.9721-1.603,10.3517,1.7346.4175.5855.7476,1.2287.9801,1.9092l2.1444-.9693c-.004-.0101-.0073-.0201-.0112-.0295l-.5575-1.2329c-.1048-.1952-.2154-.3866-.3319-.5742-2.8744-4.5639-8.9043-5.9336-13.4682-3.0592-1.1333.7138-2.1077,1.653-2.8626,2.7593l2.1772.9894c.4473-.5846.9791-1.0994,1.578-1.5273h0Z" fill="#fff"/><path id="path23995" d="M8.9411,14.5744c.084-.4203.2039-.8325.3585-1.2322l-2.1378-.9712c-.8542,2.1203-.9397,4.4726-.2416,6.6493l2.0402-1.4292c-.2135-.9936-.2201-2.0204-.0194-3.0167h0Z" fill="#fff"/><polyline id="polyline23997" points="23.131 13.3513 21.6521 14.085 21.5876 14.1175 19.5589 15.1229" fill="#fff"/><path id="path23999" d="M12.3642,17.7015l-1.3111.9187c-.3274-.6491-.5283-1.3546-.592-2.0788l.7312-.5119,1.172,1.672Z" fill="#fff"/><path id="path24001" d="M13.3709,12.9458l-.8452,1.8612-1.7276-.7869c.2388-.6484.5931-1.2482,1.0456-1.7704l1.5272.6962Z" fill="#fff"/><path id="path24003" d="M21.7625,17.6291c-.8829,3.0642-4.0826,4.8325-7.1468,3.9497-1.5426-.4445-2.8305-1.5111-3.5546-2.9438-.0031-.0043-.0055-.0091-.0073-.0141-1.0481-2.0874-.7358-4.6005.7913-6.3679l.0249-.028c2.1035-2.3992,5.7536-2.6389,8.1527-.5354.8011.7024,1.3924,1.6127,1.7085,2.6302h0l-.0671.0291-2.0698.9215c0-.008-.0033-.0161-.0059-.0241-.4332-1.8648-2.2962-3.0254-4.161-2.5922s-3.0254,2.2962-2.5922,4.161c.4332,1.8648,2.2962,3.0254,4.161,2.5922,1.1376-.2643,2.0656-1.0836,2.4689-2.1796l2.2974.4015Z" fill="#fff"/></svg>