<?xml version="1.0" encoding="UTF-8"?><svg id="Layer_1" xmlns="http://www.w3.org/2000/svg" width="131.6596" height="32" xmlns:xlink="http://www.w3.org/1999/xlink" viewBox="0 0 131.6596 32"><defs><linearGradient id="linear-gradient" x1="24.8428" y1="20.0132" x2="24.9349" y2="20.0132" gradientUnits="userSpaceOnUse"><stop offset="0" stop-color="#232323"/><stop offset="1" stop-color="#232323" stop-opacity=".1"/></linearGradient><linearGradient id="linear-gradient-2" x1="23.9212" y1="21.1687" x2="24.4544" y2="21.1687" xlink:href="#linear-gradient"/><linearGradient id="linear-gradient-3" x1="22.999" y1="22.1257" x2="23.6375" y2="22.1257" xlink:href="#linear-gradient"/><linearGradient id="linear-gradient-4" x1="22.0739" y1="23.0636" x2="22.7124" y2="23.0636" xlink:href="#linear-gradient"/><linearGradient id="linear-gradient-5" x1="21.1555" y1="24.008" x2="21.7939" y2="24.008" xlink:href="#linear-gradient"/><linearGradient id="linear-gradient-6" x1="20.2281" y1="24.9448" x2="20.8864" y2="24.9448" xlink:href="#linear-gradient"/><linearGradient id="linear-gradient-7" x1="19.3065" y1="25.893" x2="19.9648" y2="25.893" xlink:href="#linear-gradient"/><linearGradient id="linear-gradient-8" x1="18.3848" y1="26.8346" x2="19.0431" y2="26.8346" xlink:href="#linear-gradient"/><linearGradient id="linear-gradient-9" x1="17.4566" y1="27.7761" x2="18.1018" y2="27.7761" xlink:href="#linear-gradient"/><linearGradient id="linear-gradient-10" x1="16.5369" y1="28.7236" x2="17.1753" y2="28.7236" xlink:href="#linear-gradient"/><linearGradient id="linear-gradient-11" x1="15.6118" y1="29.6615" x2="16.2503" y2="29.6615" xlink:href="#linear-gradient"/><linearGradient id="linear-gradient-12" x1="14.6867" y1="30.606" x2="15.3252" y2="30.606" xlink:href="#linear-gradient"/><linearGradient id="linear-gradient-13" x1="13.8228" y1="31.5589" x2="14.3823" y2="31.5589" xlink:href="#linear-gradient"/><linearGradient id="linear-gradient-14" x1="25.7446" y1="17.4485" x2="26.1331" y2="17.4485" xlink:href="#linear-gradient"/><linearGradient id="linear-gradient-15" x1="24.8166" y1="18.3737" x2="25.4684" y2="18.3737" xlink:href="#linear-gradient"/><linearGradient id="linear-gradient-16" x1="23.8981" y1="19.3116" x2="24.5499" y2="19.3116" xlink:href="#linear-gradient"/><linearGradient id="linear-gradient-17" x1="23.1773" y1="20.2601" x2="23.6249" y2="20.2601" xlink:href="#linear-gradient"/><linearGradient id="linear-gradient-18" x1="22.6243" y1="21.4551" x2="22.7033" y2="21.4551" xlink:href="#linear-gradient"/><linearGradient id="linear-gradient-19" x1="19.2801" y1="23.7498" x2="19.3591" y2="23.7498" xlink:href="#linear-gradient"/><linearGradient id="linear-gradient-20" x1="18.3585" y1="24.7177" x2="18.5034" y2="24.7177" xlink:href="#linear-gradient"/><linearGradient id="linear-gradient-21" x1="17.4369" y1="25.6329" x2="17.5356" y2="25.6329" xlink:href="#linear-gradient"/><linearGradient id="linear-gradient-22" x1="14.1585" y1="29.9391" x2="14.3955" y2="29.9391" xlink:href="#linear-gradient"/><linearGradient id="linear-gradient-23" x1="26.6399" y1="14.6239" x2="26.9757" y2="14.6239" xlink:href="#linear-gradient"/><linearGradient id="linear-gradient-24" x1="25.7158" y1="15.5662" x2="26.3809" y2="15.5662" xlink:href="#linear-gradient"/><linearGradient id="linear-gradient-25" x1="24.8692" y1="16.507" x2="25.455" y2="16.507" xlink:href="#linear-gradient"/><linearGradient id="linear-gradient-26" x1="22.0253" y1="19.3317" x2="22.4993" y2="19.3317" xlink:href="#linear-gradient"/><linearGradient id="linear-gradient-27" x1="21.1037" y1="20.2765" x2="21.762" y2="20.2765" xlink:href="#linear-gradient"/><linearGradient id="linear-gradient-28" x1="20.1788" y1="21.2197" x2="20.8438" y2="21.2197" xlink:href="#linear-gradient"/><linearGradient id="linear-gradient-29" x1="19.2537" y1="22.1641" x2="19.9188" y2="22.1641" xlink:href="#linear-gradient"/><linearGradient id="linear-gradient-30" x1="18.3352" y1="23.102" x2="19.0002" y2="23.102" xlink:href="#linear-gradient"/><linearGradient id="linear-gradient-31" x1="17.4036" y1="24.0464" x2="18.0686" y2="24.0464" xlink:href="#linear-gradient"/><linearGradient id="linear-gradient-32" x1="16.4852" y1="24.9909" x2="17.1503" y2="24.9909" xlink:href="#linear-gradient"/><linearGradient id="linear-gradient-33" x1="15.5601" y1="25.9287" x2="16.2252" y2="25.9287" xlink:href="#linear-gradient"/><linearGradient id="linear-gradient-34" x1="14.6417" y1="26.8731" x2="15.3067" y2="26.8731" xlink:href="#linear-gradient"/><linearGradient id="linear-gradient-35" x1="13.8228" y1="27.8123" x2="14.3757" y2="27.8123" xlink:href="#linear-gradient"/><linearGradient id="linear-gradient-36" x1="26.6137" y1="12.7506" x2="27.2785" y2="12.7506" xlink:href="#linear-gradient"/><linearGradient id="linear-gradient-37" x1="25.6986" y1="13.6921" x2="26.3635" y2="13.6921" xlink:href="#linear-gradient"/><linearGradient id="linear-gradient-38" x1="23.8487" y1="15.3843" x2="23.9277" y2="15.3843" xlink:href="#linear-gradient"/><linearGradient id="linear-gradient-39" x1="22.9337" y1="16.5135" x2="23.592" y2="16.5135" xlink:href="#linear-gradient"/><linearGradient id="linear-gradient-40" x1="22.003" y1="17.4644" x2="22.6747" y2="17.4644" xlink:href="#linear-gradient"/><linearGradient id="linear-gradient-41" x1="21.0779" y1="18.4089" x2="21.7496" y2="18.4089" xlink:href="#linear-gradient"/><linearGradient id="linear-gradient-42" x1="20.1529" y1="19.3468" x2="20.8245" y2="19.3468" xlink:href="#linear-gradient"/><linearGradient id="linear-gradient-43" x1="19.2278" y1="20.2912" x2="19.8995" y2="20.2912" xlink:href="#linear-gradient"/><linearGradient id="linear-gradient-44" x1="18.3094" y1="21.2357" x2="18.9812" y2="21.2357" xlink:href="#linear-gradient"/><linearGradient id="linear-gradient-45" x1="17.3843" y1="22.18" x2="18.0561" y2="22.18" xlink:href="#linear-gradient"/><linearGradient id="linear-gradient-46" x1="16.4626" y1="23.1835" x2="17.1341" y2="23.1835" xlink:href="#linear-gradient"/><linearGradient id="linear-gradient-47" x1="15.5281" y1="24.0684" x2="16.1996" y2="24.0684" xlink:href="#linear-gradient"/><linearGradient id="linear-gradient-48" x1="14.6159" y1="25.0068" x2="15.2875" y2="25.0068" xlink:href="#linear-gradient"/><linearGradient id="linear-gradient-49" x1="13.8491" y1="25.949" x2="14.3626" y2="25.949" xlink:href="#linear-gradient"/><linearGradient id="linear-gradient-50" x1="27.5155" y1="9.9555" x2="27.6998" y2="9.9555" xlink:href="#linear-gradient"/><linearGradient id="linear-gradient-51" x1="26.5891" y1="10.8858" x2="27.2742" y2="10.8858" xlink:href="#linear-gradient"/><linearGradient id="linear-gradient-52" x1="26.0212" y1="11.8189" x2="26.3306" y2="11.8189" xlink:href="#linear-gradient"/><linearGradient id="linear-gradient-53" x1="23.8224" y1="13.7021" x2="24.3556" y2="13.7021" xlink:href="#linear-gradient"/><linearGradient id="linear-gradient-54" x1="23.1642" y1="14.6633" x2="23.5855" y2="14.6633" xlink:href="#linear-gradient"/><linearGradient id="linear-gradient-55" x1="20.1557" y1="17.6329" x2="20.814" y2="17.6329" xlink:href="#linear-gradient"/><linearGradient id="linear-gradient-56" x1="19.202" y1="18.4281" x2="19.887" y2="18.4281" xlink:href="#linear-gradient"/><linearGradient id="linear-gradient-57" x1="18.2835" y1="19.366" x2="18.9686" y2="19.366" xlink:href="#linear-gradient"/><linearGradient id="linear-gradient-58" x1="17.3585" y1="20.317" x2="18.0435" y2="20.317" xlink:href="#linear-gradient"/><linearGradient id="linear-gradient-59" x1="14.593" y1="23.1901" x2="15.2776" y2="23.1901" xlink:href="#linear-gradient"/><linearGradient id="linear-gradient-60" x1="13.8491" y1="24.0823" x2="14.3494" y2="24.0823" xlink:href="#linear-gradient"/><linearGradient id="linear-gradient-61" x1="27.4761" y1="8.0988" x2="27.7657" y2="8.0988" xlink:href="#linear-gradient"/><linearGradient id="linear-gradient-62" x1="26.5633" y1="9.0227" x2="27.2616" y2="9.0227" xlink:href="#linear-gradient"/><linearGradient id="linear-gradient-63" x1="26.2252" y1="9.9457" x2="26.3306" y2="9.9457" xlink:href="#linear-gradient"/><linearGradient id="linear-gradient-64" x1="23.8014" y1="11.8494" x2="24.4997" y2="11.8494" xlink:href="#linear-gradient"/><linearGradient id="linear-gradient-65" x1="23.4077" y1="12.823" x2="23.5723" y2="12.823" xlink:href="#linear-gradient"/><linearGradient id="linear-gradient-66" x1="17.3579" y1="18.4494" x2="18.0293" y2="18.4494" xlink:href="#linear-gradient"/><linearGradient id="linear-gradient-67" x1="13.8491" y1="22.2189" x2="14.152" y2="22.2189" xlink:href="#linear-gradient"/><linearGradient id="linear-gradient-68" x1="27.4628" y1="6.2255" x2="27.7591" y2="6.2255" xlink:href="#linear-gradient"/><linearGradient id="linear-gradient-69" x1="26.5435" y1="7.1647" x2="27.2483" y2="7.1647" xlink:href="#linear-gradient"/><linearGradient id="linear-gradient-70" x1="23.7755" y1="9.9831" x2="24.4805" y2="9.9831" xlink:href="#linear-gradient"/><linearGradient id="linear-gradient-71" x1="22.835" y1="10.9235" x2="23.5591" y2="10.9235" xlink:href="#linear-gradient"/><linearGradient id="linear-gradient-72" x1="20.0898" y1="13.758" x2="20.2741" y2="13.758" xlink:href="#linear-gradient"/><linearGradient id="linear-gradient-73" x1="19.1616" y1="14.6568" x2="19.8659" y2="14.6568" xlink:href="#linear-gradient"/><linearGradient id="linear-gradient-74" x1="13.8491" y1="20.3522" x2="14.1651" y2="20.3522" xlink:href="#linear-gradient"/><linearGradient id="linear-gradient-75" x1="26.5181" y1="5.2867" x2="27.2365" y2="5.2867" xlink:href="#linear-gradient"/><linearGradient id="linear-gradient-76" x1="26.1923" y1="6.2288" x2="26.3306" y2="6.2288" xlink:href="#linear-gradient"/><linearGradient id="linear-gradient-77" x1="23.7421" y1="8.1276" x2="24.4601" y2="8.1276" xlink:href="#linear-gradient"/><linearGradient id="linear-gradient-78" x1="22.8246" y1="9.0578" x2="23.5429" y2="9.0578" xlink:href="#linear-gradient"/><linearGradient id="linear-gradient-79" x1="21.9001" y1="10.0049" x2="22.6177" y2="10.0049" xlink:href="#linear-gradient"/><linearGradient id="linear-gradient-80" x1="19.131" y1="12.8356" x2="19.8494" y2="12.8356" xlink:href="#linear-gradient"/><linearGradient id="linear-gradient-81" x1="18.2096" y1="13.7796" x2="18.9276" y2="13.7796" xlink:href="#linear-gradient"/><linearGradient id="linear-gradient-82" x1="17.2876" y1="14.7178" x2="18.0058" y2="14.7178" xlink:href="#linear-gradient"/><linearGradient id="linear-gradient-83" x1="13.8557" y1="18.4856" x2="14.1717" y2="18.4856" xlink:href="#linear-gradient"/><linearGradient id="linear-gradient-84" x1="25.6065" y1="4.5004" x2="26.3306" y2="4.5004" xlink:href="#linear-gradient"/><linearGradient id="linear-gradient-85" x1="24.6453" y1="5.2642" x2="25.376" y2="5.2642" xlink:href="#linear-gradient"/><linearGradient id="linear-gradient-86" x1="22.802" y1="7.2033" x2="23.5196" y2="7.2033" xlink:href="#linear-gradient"/><linearGradient id="linear-gradient-87" x1="21.8738" y1="8.1392" x2="22.6054" y2="8.1392" xlink:href="#linear-gradient"/><linearGradient id="linear-gradient-88" x1="20.9588" y1="9.0765" x2="21.683" y2="9.0765" xlink:href="#linear-gradient"/><linearGradient id="linear-gradient-89" x1="18.1874" y1="11.9408" x2="18.9115" y2="11.9408" xlink:href="#linear-gradient"/><linearGradient id="linear-gradient-90" x1="17.2618" y1="12.8548" x2="17.9932" y2="12.8548" xlink:href="#linear-gradient"/><linearGradient id="linear-gradient-91" x1="16.3433" y1="13.7926" x2="17.0748" y2="13.7926" xlink:href="#linear-gradient"/><linearGradient id="linear-gradient-92" x1="15.4116" y1="14.7371" x2="16.1431" y2="14.7371" xlink:href="#linear-gradient"/><linearGradient id="linear-gradient-93" x1="13.8557" y1="16.6189" x2="14.1848" y2="16.6189" xlink:href="#linear-gradient"/><linearGradient id="linear-gradient-94" x1="23.6973" y1="4.3885" x2="24.4412" y2="4.3885" xlink:href="#linear-gradient"/><linearGradient id="linear-gradient-95" x1="22.7757" y1="5.1753" x2="23.513" y2="5.1753" xlink:href="#linear-gradient"/><linearGradient id="linear-gradient-96" x1="21.8607" y1="6.6008" x2="22.0055" y2="6.6008" xlink:href="#linear-gradient"/><linearGradient id="linear-gradient-97" x1="20.9294" y1="7.2107" x2="21.6677" y2="7.2107" xlink:href="#linear-gradient"/><linearGradient id="linear-gradient-98" x1="20.0044" y1="8.1551" x2="20.7426" y2="8.1551" xlink:href="#linear-gradient"/><linearGradient id="linear-gradient-99" x1="19.0826" y1="8.8296" x2="19.8199" y2="8.8296" xlink:href="#linear-gradient"/><linearGradient id="linear-gradient-100" x1="16.3112" y1="11.9473" x2="17.055" y2="11.9473" xlink:href="#linear-gradient"/><linearGradient id="linear-gradient-101" x1="15.3924" y1="12.8707" x2="16.1306" y2="12.8707" xlink:href="#linear-gradient"/><linearGradient id="linear-gradient-102" x1="14.4607" y1="13.8086" x2="15.199" y2="13.8086" xlink:href="#linear-gradient"/><linearGradient id="linear-gradient-103" x1="13.8557" y1="14.7523" x2="14.2836" y2="14.7523" xlink:href="#linear-gradient"/><linearGradient id="linear-gradient-104" x1="22.756" y1="3.8025" x2="23.072" y2="3.8025" xlink:href="#linear-gradient"/><linearGradient id="linear-gradient-105" x1="21.8287" y1="4.4097" x2="22.5802" y2="4.4097" xlink:href="#linear-gradient"/><linearGradient id="linear-gradient-106" x1="19.9911" y1="6.423" x2="20.735" y2="6.423" xlink:href="#linear-gradient"/><linearGradient id="linear-gradient-107" x1="19.06" y1="7.2365" x2="19.8115" y2="7.2365" xlink:href="#linear-gradient"/><linearGradient id="linear-gradient-108" x1="18.1351" y1="8.1743" x2="18.8866" y2="8.1743" xlink:href="#linear-gradient"/><linearGradient id="linear-gradient-109" x1="17.213" y1="8.7506" x2="17.9569" y2="8.7506" xlink:href="#linear-gradient"/><linearGradient id="linear-gradient-110" x1="14.4416" y1="11.9572" x2="15.192" y2="11.9572" xlink:href="#linear-gradient"/><linearGradient id="linear-gradient-111" x1="13.8557" y1="12.8856" x2="14.2704" y2="12.8856" xlink:href="#linear-gradient"/><linearGradient id="linear-gradient-112" x1="20.8864" y1="3.5687" x2="21.6434" y2="3.5687" xlink:href="#linear-gradient"/><linearGradient id="linear-gradient-113" x1="19.9582" y1="4.3951" x2="20.7153" y2="4.3951" xlink:href="#linear-gradient"/><linearGradient id="linear-gradient-114" x1="18.1084" y1="6.3171" x2="18.873" y2="6.3171" xlink:href="#linear-gradient"/><linearGradient id="linear-gradient-115" x1="17.1908" y1="7.2556" x2="17.9556" y2="7.2556" xlink:href="#linear-gradient"/><linearGradient id="linear-gradient-116" x1="16.2591" y1="8.1936" x2="17.0239" y2="8.1936" xlink:href="#linear-gradient"/><linearGradient id="linear-gradient-117" x1="13.8622" y1="11.0189" x2="14.2111" y2="11.0189" xlink:href="#linear-gradient"/><linearGradient id="linear-gradient-118" x1="19.0085" y1="3.5005" x2="19.7799" y2="3.5005" xlink:href="#linear-gradient"/><linearGradient id="linear-gradient-119" x1="18.7205" y1="4.0823" x2="18.8522" y2="4.0823" xlink:href="#linear-gradient"/><linearGradient id="linear-gradient-120" x1="17.1669" y1="5.4486" x2="17.9372" y2="5.4486" xlink:href="#linear-gradient"/><linearGradient id="linear-gradient-121" x1="16.2398" y1="6.3272" x2="17.0113" y2="6.3272" xlink:href="#linear-gradient"/><linearGradient id="linear-gradient-122" x1="15.3148" y1="7.2716" x2="16.0862" y2="7.2716" xlink:href="#linear-gradient"/><linearGradient id="linear-gradient-123" x1="14.3898" y1="8.2095" x2="15.1613" y2="8.2095" xlink:href="#linear-gradient"/><linearGradient id="linear-gradient-124" x1="13.8622" y1="9.1555" x2="14.2244" y2="9.1555" xlink:href="#linear-gradient"/><linearGradient id="linear-gradient-125" x1="18.0425" y1="2.5811" x2="18.8457" y2="2.5811" xlink:href="#linear-gradient"/><linearGradient id="linear-gradient-126" x1="17.1143" y1="3.4206" x2="17.8911" y2="3.4206" xlink:href="#linear-gradient"/><linearGradient id="linear-gradient-127" x1="16.219" y1="4.7473" x2="16.614" y2="4.7473" xlink:href="#linear-gradient"/><linearGradient id="linear-gradient-128" x1="15.2955" y1="5.4085" x2="16.0803" y2="5.4085" xlink:href="#linear-gradient"/><linearGradient id="linear-gradient-129" x1="14.3639" y1="6.3464" x2="15.1487" y2="6.3464" xlink:href="#linear-gradient"/><linearGradient id="linear-gradient-130" x1="13.8622" y1="7.2889" x2="14.2309" y2="7.2889" xlink:href="#linear-gradient"/><linearGradient id="linear-gradient-131" x1="17.1143" y1="1.8502" x2="17.8976" y2="1.8502" xlink:href="#linear-gradient"/><linearGradient id="linear-gradient-132" x1="16.1927" y1="2.5942" x2="16.9826" y2="2.5942" xlink:href="#linear-gradient"/><linearGradient id="linear-gradient-133" x1="14.3442" y1="4.4879" x2="15.1421" y2="4.4879" xlink:href="#linear-gradient"/><linearGradient id="linear-gradient-134" x1="13.8622" y1="5.4222" x2="14.2177" y2="5.4222" xlink:href="#linear-gradient"/><linearGradient id="linear-gradient-135" x1="15.2438" y1="1.6791" x2="16.0485" y2="1.6791" xlink:href="#linear-gradient"/><linearGradient id="linear-gradient-136" x1="13.8688" y1="3.5555" x2="14.198" y2="3.5555" xlink:href="#linear-gradient"/><linearGradient id="linear-gradient-137" x1="14.2901" y1=".7506" x2="15.113" y2=".7506" xlink:href="#linear-gradient"/><linearGradient id="linear-gradient-138" x1="13.994" y1="1.3926" x2="14.1783" y2="1.3926" xlink:href="#linear-gradient"/><linearGradient id="linear-gradient-139" x1="23.039" y1="22.9761" x2="23.355" y2="22.9761" xlink:href="#linear-gradient"/><linearGradient id="linear-gradient-140" x1="22.0911" y1="23.9868" x2="22.7033" y2="23.9868" xlink:href="#linear-gradient"/><linearGradient id="linear-gradient-141" x1="21.1694" y1="24.9547" x2="21.8014" y2="24.9547" xlink:href="#linear-gradient"/><linearGradient id="linear-gradient-142" x1="20.2413" y1="25.8962" x2="20.8798" y2="25.8962" xlink:href="#linear-gradient"/><linearGradient id="linear-gradient-143" x1="19.3216" y1="26.8251" x2="19.9601" y2="26.8251" xlink:href="#linear-gradient"/><linearGradient id="linear-gradient-144" x1="18.4032" y1="27.7695" x2="19.0415" y2="27.7695" xlink:href="#linear-gradient"/><linearGradient id="linear-gradient-145" x1="17.4716" y1="28.7073" x2="18.1099" y2="28.7073" xlink:href="#linear-gradient"/><linearGradient id="linear-gradient-146" x1="16.5548" y1="29.6691" x2="17.1802" y2="29.6691" xlink:href="#linear-gradient"/><linearGradient id="linear-gradient-147" x1="15.6266" y1="30.535" x2="16.2849" y2="30.535" xlink:href="#linear-gradient"/><linearGradient id="linear-gradient-148" x1="14.7049" y1="31.3119" x2="14.988" y2="31.3119" xlink:href="#linear-gradient"/><linearGradient id="linear-gradient-149" x1="24.8362" y1="19.2988" x2="25.376" y2="19.2988" xlink:href="#linear-gradient"/><linearGradient id="linear-gradient-150" x1="23.9078" y1="20.2464" x2="24.5596" y2="20.2464" xlink:href="#linear-gradient"/><linearGradient id="linear-gradient-151" x1="22.9893" y1="21.1908" x2="23.6411" y2="21.1908" xlink:href="#linear-gradient"/><linearGradient id="linear-gradient-152" x1="22.0713" y1="22.1333" x2="22.7297" y2="22.1333" xlink:href="#linear-gradient"/><linearGradient id="linear-gradient-153" x1="21.3538" y1="23.0946" x2="21.7948" y2="23.0946" xlink:href="#linear-gradient"/><linearGradient id="linear-gradient-154" x1="20.6099" y1="24.2041" x2="20.8732" y2="24.2041" xlink:href="#linear-gradient"/><linearGradient id="linear-gradient-155" x1="19.8002" y1="25.1951" x2="19.9517" y2="25.1951" xlink:href="#linear-gradient"/><linearGradient id="linear-gradient-156" x1="18.9115" y1="26.1663" x2="19.0234" y2="26.1663" xlink:href="#linear-gradient"/><linearGradient id="linear-gradient-157" x1="17.924" y1="27.0815" x2="18.1018" y2="27.0815" xlink:href="#linear-gradient"/><linearGradient id="linear-gradient-158" x1="16.8312" y1="27.9671" x2="17.1802" y2="27.9671" xlink:href="#linear-gradient"/><linearGradient id="linear-gradient-159" x1="15.6397" y1="28.7967" x2="16.298" y2="28.7967" xlink:href="#linear-gradient"/><linearGradient id="linear-gradient-160" x1="14.6851" y1="29.6724" x2="15.3434" y2="29.6724" xlink:href="#linear-gradient"/><linearGradient id="linear-gradient-161" x1="13.8425" y1="30.614" x2="14.4087" y2="30.614" xlink:href="#linear-gradient"/><linearGradient id="linear-gradient-162" x1="26.6598" y1="15.358" x2="26.7321" y2="15.358" xlink:href="#linear-gradient"/><linearGradient id="linear-gradient-163" x1="25.7315" y1="16.5004" x2="26.3832" y2="16.5004" xlink:href="#linear-gradient"/><linearGradient id="linear-gradient-164" x1="24.8135" y1="17.4388" x2="25.4786" y2="17.4388" xlink:href="#linear-gradient"/><linearGradient id="linear-gradient-165" x1="24.1186" y1="18.3769" x2="24.5532" y2="18.3769" xlink:href="#linear-gradient"/><linearGradient id="linear-gradient-166" x1="21.1168" y1="21.1325" x2="21.446" y2="21.1325" xlink:href="#linear-gradient"/><linearGradient id="linear-gradient-167" x1="20.1754" y1="22.1498" x2="20.8337" y2="22.1498" xlink:href="#linear-gradient"/><linearGradient id="linear-gradient-168" x1="19.2735" y1="23.1177" x2="19.9318" y2="23.1177" xlink:href="#linear-gradient"/><linearGradient id="linear-gradient-169" x1="18.3449" y1="24.0367" x2="19.0099" y2="24.0367" xlink:href="#linear-gradient"/><linearGradient id="linear-gradient-170" x1="17.4303" y1="24.9745" x2="18.0886" y2="24.9745" xlink:href="#linear-gradient"/><linearGradient id="linear-gradient-171" x1="16.502" y1="25.9161" x2="17.1603" y2="25.9161" xlink:href="#linear-gradient"/><linearGradient id="linear-gradient-172" x1="15.5804" y1="26.8641" x2="16.2387" y2="26.8641" xlink:href="#linear-gradient"/><linearGradient id="linear-gradient-173" x1="14.6589" y1="27.6642" x2="15.2119" y2="27.6642" xlink:href="#linear-gradient"/><linearGradient id="linear-gradient-174" x1="26.6334" y1="13.6954" x2="27.1864" y2="13.6954" xlink:href="#linear-gradient"/><linearGradient id="linear-gradient-175" x1="25.7062" y1="14.6281" x2="26.3779" y2="14.6281" xlink:href="#linear-gradient"/><linearGradient id="linear-gradient-176" x1="25.1852" y1="15.572" x2="25.4616" y2="15.572" xlink:href="#linear-gradient"/><linearGradient id="linear-gradient-177" x1="22.9403" y1="17.4485" x2="23.3156" y2="17.4485" xlink:href="#linear-gradient"/><linearGradient id="linear-gradient-178" x1="22.0126" y1="18.3993" x2="22.6844" y2="18.3993" xlink:href="#linear-gradient"/><linearGradient id="linear-gradient-179" x1="21.0941" y1="19.3436" x2="21.7659" y2="19.3436" xlink:href="#linear-gradient"/><linearGradient id="linear-gradient-180" x1="20.1691" y1="20.2815" x2="20.8408" y2="20.2815" xlink:href="#linear-gradient"/><linearGradient id="linear-gradient-181" x1="19.2507" y1="21.2259" x2="19.9223" y2="21.2259" xlink:href="#linear-gradient"/><linearGradient id="linear-gradient-182" x1="18.319" y1="22.1638" x2="18.9907" y2="22.1638" xlink:href="#linear-gradient"/><linearGradient id="linear-gradient-183" x1="17.4005" y1="23.1083" x2="18.0722" y2="23.1083" xlink:href="#linear-gradient"/><linearGradient id="linear-gradient-184" x1="16.4756" y1="24.0593" x2="17.1472" y2="24.0593" xlink:href="#linear-gradient"/><linearGradient id="linear-gradient-185" x1="15.5571" y1="24.997" x2="16.2287" y2="24.997" xlink:href="#linear-gradient"/><linearGradient id="linear-gradient-186" x1="14.6254" y1="25.9415" x2="15.2971" y2="25.9415" xlink:href="#linear-gradient"/><linearGradient id="linear-gradient-187" x1="13.8491" y1="26.8839" x2="14.3823" y2="26.8839" xlink:href="#linear-gradient"/><linearGradient id="linear-gradient-188" x1="27.5352" y1="10.8642" x2="27.6472" y2="10.8642" xlink:href="#linear-gradient"/><linearGradient id="linear-gradient-189" x1="26.612" y1="11.8205" x2="27.2969" y2="11.8205" xlink:href="#linear-gradient"/><linearGradient id="linear-gradient-190" x1="25.8632" y1="12.7737" x2="26.3701" y2="12.7737" xlink:href="#linear-gradient"/><linearGradient id="linear-gradient-191" x1="23.8356" y1="14.637" x2="24.1647" y2="14.637" xlink:href="#linear-gradient"/><linearGradient id="linear-gradient-192" x1="22.9403" y1="15.5885" x2="23.6117" y2="15.5885" xlink:href="#linear-gradient"/><linearGradient id="linear-gradient-193" x1="22.0187" y1="16.5268" x2="22.6901" y2="16.5268" xlink:href="#linear-gradient"/><linearGradient id="linear-gradient-194" x1="21.0641" y1="17.4749" x2="21.7554" y2="17.4749" xlink:href="#linear-gradient"/><linearGradient id="linear-gradient-195" x1="20.1432" y1="18.4184" x2="20.8283" y2="18.4184" xlink:href="#linear-gradient"/><linearGradient id="linear-gradient-196" x1="19.2248" y1="19.3629" x2="19.9098" y2="19.3629" xlink:href="#linear-gradient"/><linearGradient id="linear-gradient-197" x1="18.2998" y1="20.3007" x2="18.9847" y2="20.3007" xlink:href="#linear-gradient"/><linearGradient id="linear-gradient-198" x1="17.3747" y1="21.2452" x2="18.0596" y2="21.2452" xlink:href="#linear-gradient"/><linearGradient id="linear-gradient-199" x1="15.5279" y1="23.1868" x2="16.2125" y2="23.1868" xlink:href="#linear-gradient"/><linearGradient id="linear-gradient-200" x1="14.5999" y1="24.0841" x2="15.2847" y2="24.0841" xlink:href="#linear-gradient"/><linearGradient id="linear-gradient-201" x1="13.8491" y1="25.014" x2="14.3692" y2="25.014" xlink:href="#linear-gradient"/><linearGradient id="linear-gradient-202" x1="27.4761" y1="9.0338" x2="27.7197" y2="9.0338" xlink:href="#linear-gradient"/><linearGradient id="linear-gradient-203" x1="26.5861" y1="9.9509" x2="27.2844" y2="9.9509" xlink:href="#linear-gradient"/><linearGradient id="linear-gradient-204" x1="26.1396" y1="10.8872" x2="26.3306" y2="10.8872" xlink:href="#linear-gradient"/><linearGradient id="linear-gradient-205" x1="23.8422" y1="12.7901" x2="24.5005" y2="12.7901" xlink:href="#linear-gradient"/><linearGradient id="linear-gradient-206" x1="23.4012" y1="13.7185" x2="23.5855" y2="13.7185" xlink:href="#linear-gradient"/><linearGradient id="linear-gradient-207" x1="19.6356" y1="17.8041" x2="19.8924" y2="17.8041" xlink:href="#linear-gradient"/><linearGradient id="linear-gradient-208" x1="18.2739" y1="18.4376" x2="18.9722" y2="18.4376" xlink:href="#linear-gradient"/><linearGradient id="linear-gradient-209" x1="13.8491" y1="23.1506" x2="14.356" y2="23.1506" xlink:href="#linear-gradient"/><linearGradient id="linear-gradient-210" x1="27.4826" y1="7.144" x2="27.7772" y2="7.144" xlink:href="#linear-gradient"/><linearGradient id="linear-gradient-211" x1="26.5593" y1="8.093" x2="27.2641" y2="8.093" xlink:href="#linear-gradient"/><linearGradient id="linear-gradient-212" x1="26.2779" y1="9.0272" x2="26.3306" y2="9.0272" xlink:href="#linear-gradient"/><linearGradient id="linear-gradient-213" x1="23.7851" y1="10.9179" x2="24.4901" y2="10.9179" xlink:href="#linear-gradient"/><linearGradient id="linear-gradient-214" x1="23.1576" y1="11.8584" x2="23.5723" y2="11.8584" xlink:href="#linear-gradient"/><linearGradient id="linear-gradient-215" x1="13.8491" y1="21.2839" x2="14.1586" y2="21.2839" xlink:href="#linear-gradient"/><linearGradient id="linear-gradient-216" x1="27.4562" y1="5.2807" x2="27.7195" y2="5.2807" xlink:href="#linear-gradient"/><linearGradient id="linear-gradient-217" x1="26.5278" y1="6.2215" x2="27.246" y2="6.2215" xlink:href="#linear-gradient"/><linearGradient id="linear-gradient-218" x1="26.2648" y1="7.1638" x2="26.3306" y2="7.1638" xlink:href="#linear-gradient"/><linearGradient id="linear-gradient-219" x1="23.7659" y1="9.0547" x2="24.4842" y2="9.0547" xlink:href="#linear-gradient"/><linearGradient id="linear-gradient-220" x1="22.8408" y1="9.9926" x2="23.5591" y2="9.9926" xlink:href="#linear-gradient"/><linearGradient id="linear-gradient-221" x1="20.0767" y1="12.8198" x2="20.2741" y2="12.8198" xlink:href="#linear-gradient"/><linearGradient id="linear-gradient-222" x1="19.1538" y1="13.7637" x2="19.872" y2="13.7637" xlink:href="#linear-gradient"/><linearGradient id="linear-gradient-223" x1="18.2268" y1="14.7062" x2="18.9444" y2="14.7062" xlink:href="#linear-gradient"/><linearGradient id="linear-gradient-224" x1="13.8557" y1="19.4173" x2="14.1651" y2="19.4173" xlink:href="#linear-gradient"/><linearGradient id="linear-gradient-225" x1="26.5149" y1="4.5399" x2="27.2391" y2="4.5399" xlink:href="#linear-gradient"/><linearGradient id="linear-gradient-226" x1="25.613" y1="5.2938" x2="26.3306" y2="5.2938" xlink:href="#linear-gradient"/><linearGradient id="linear-gradient-227" x1="23.7369" y1="7.1901" x2="24.461" y2="7.1901" xlink:href="#linear-gradient"/><linearGradient id="linear-gradient-228" x1="22.8138" y1="8.1302" x2="23.5452" y2="8.1302" xlink:href="#linear-gradient"/><linearGradient id="linear-gradient-229" x1="21.8899" y1="9.074" x2="22.6215" y2="9.074" xlink:href="#linear-gradient"/><linearGradient id="linear-gradient-230" x1="19.1221" y1="11.9934" x2="19.8528" y2="11.9934" xlink:href="#linear-gradient"/><linearGradient id="linear-gradient-231" x1="18.2029" y1="12.8385" x2="18.9345" y2="12.8385" xlink:href="#linear-gradient"/><linearGradient id="linear-gradient-232" x1="17.2778" y1="13.783" x2="18.0094" y2="13.783" xlink:href="#linear-gradient"/><linearGradient id="linear-gradient-233" x1="16.3529" y1="14.7274" x2="17.0845" y2="14.7274" xlink:href="#linear-gradient"/><linearGradient id="linear-gradient-234" x1="13.8557" y1="17.5539" x2="14.1783" y2="17.5539" xlink:href="#linear-gradient"/><linearGradient id="linear-gradient-235" x1="24.6453" y1="4.4412" x2="25.376" y2="4.4412" xlink:href="#linear-gradient"/><linearGradient id="linear-gradient-236" x1="23.6973" y1="5.228" x2="24.4346" y2="5.228" xlink:href="#linear-gradient"/><linearGradient id="linear-gradient-237" x1="21.8707" y1="7.201" x2="22.6088" y2="7.201" xlink:href="#linear-gradient"/><linearGradient id="linear-gradient-238" x1="20.9391" y1="8.1455" x2="21.6772" y2="8.1455" xlink:href="#linear-gradient"/><linearGradient id="linear-gradient-239" x1="20.024" y1="8.9844" x2="20.7613" y2="8.9844" xlink:href="#linear-gradient"/><linearGradient id="linear-gradient-240" x1="17.2526" y1="11.944" x2="17.9899" y2="11.944" xlink:href="#linear-gradient"/><linearGradient id="linear-gradient-241" x1="16.327" y1="12.8545" x2="17.0652" y2="12.8545" xlink:href="#linear-gradient"/><linearGradient id="linear-gradient-242" x1="15.4019" y1="13.8055" x2="16.1402" y2="13.8055" xlink:href="#linear-gradient"/><linearGradient id="linear-gradient-243" x1="14.4836" y1="14.7433" x2="15.2217" y2="14.7433" xlink:href="#linear-gradient"/><linearGradient id="linear-gradient-244" x1="13.8557" y1="15.684" x2="14.1848" y2="15.684" xlink:href="#linear-gradient"/><linearGradient id="linear-gradient-245" x1="22.7632" y1="4.3935" x2="23.5147" y2="4.3935" xlink:href="#linear-gradient"/><linearGradient id="linear-gradient-246" x1="21.841" y1="5.0864" x2="22.5914" y2="5.0864" xlink:href="#linear-gradient"/><linearGradient id="linear-gradient-247" x1="20.9258" y1="6.5415" x2="21.6698" y2="6.5415" xlink:href="#linear-gradient"/><linearGradient id="linear-gradient-248" x1="19.9948" y1="7.2268" x2="20.7463" y2="7.2268" xlink:href="#linear-gradient"/><linearGradient id="linear-gradient-249" x1="19.0697" y1="8.1712" x2="19.8212" y2="8.1712" xlink:href="#linear-gradient"/><linearGradient id="linear-gradient-250" x1="15.383" y1="11.9539" x2="16.1335" y2="11.9539" xlink:href="#linear-gradient"/><linearGradient id="linear-gradient-251" x1="14.4577" y1="12.8737" x2="15.2092" y2="12.8737" xlink:href="#linear-gradient"/><linearGradient id="linear-gradient-252" x1="13.8557" y1="13.8206" x2="14.2836" y2="13.8206" xlink:href="#linear-gradient"/><linearGradient id="linear-gradient-253" x1="21.8211" y1="3.6872" x2="22.5783" y2="3.6872" xlink:href="#linear-gradient"/><linearGradient id="linear-gradient-254" x1="20.8939" y1="4.4193" x2="21.6585" y2="4.4193" xlink:href="#linear-gradient"/><linearGradient id="linear-gradient-255" x1="19.0498" y1="6.3045" x2="19.8068" y2="6.3045" xlink:href="#linear-gradient"/><linearGradient id="linear-gradient-256" x1="18.1254" y1="7.246" x2="18.8902" y2="7.246" xlink:href="#linear-gradient"/><linearGradient id="linear-gradient-257" x1="17.2004" y1="8.1905" x2="17.9652" y2="8.1905" xlink:href="#linear-gradient"/><linearGradient id="linear-gradient-258" x1="16.7259" y1="8.7473" x2="17.0353" y2="8.7473" xlink:href="#linear-gradient"/><linearGradient id="linear-gradient-259" x1="13.8557" y1="11.9539" x2="14.2704" y2="11.9539" xlink:href="#linear-gradient"/><linearGradient id="linear-gradient-260" x1="19.945" y1="3.493" x2="20.7218" y2="3.493" xlink:href="#linear-gradient"/><linearGradient id="linear-gradient-261" x1="19.0234" y1="4.2535" x2="19.7937" y2="4.2535" xlink:href="#linear-gradient"/><linearGradient id="linear-gradient-262" x1="18.1084" y1="5.6527" x2="18.6745" y2="5.6527" xlink:href="#linear-gradient"/><linearGradient id="linear-gradient-263" x1="17.1745" y1="6.3241" x2="17.946" y2="6.3241" xlink:href="#linear-gradient"/><linearGradient id="linear-gradient-264" x1="16.2561" y1="7.262" x2="17.0275" y2="7.262" xlink:href="#linear-gradient"/><linearGradient id="linear-gradient-265" x1="15.3311" y1="8.2064" x2="16.1025" y2="8.2064" xlink:href="#linear-gradient"/><linearGradient id="linear-gradient-266" x1="13.8622" y1="10.0873" x2="14.2177" y2="10.0873" xlink:href="#linear-gradient"/><linearGradient id="linear-gradient-267" x1="19.0036" y1="2.7523" x2="19.7804" y2="2.7523" xlink:href="#linear-gradient"/><linearGradient id="linear-gradient-268" x1="18.0755" y1="3.5095" x2="18.8588" y2="3.5095" xlink:href="#linear-gradient"/><linearGradient id="linear-gradient-269" x1="16.2322" y1="5.3959" x2="17.0156" y2="5.3959" xlink:href="#linear-gradient"/><linearGradient id="linear-gradient-270" x1="15.3052" y1="6.3433" x2="16.0899" y2="6.3433" xlink:href="#linear-gradient"/><linearGradient id="linear-gradient-271" x1="14.3867" y1="7.2811" x2="15.1714" y2="7.2811" xlink:href="#linear-gradient"/><linearGradient id="linear-gradient-272" x1="13.8622" y1="8.2206" x2="14.2441" y2="8.2206" xlink:href="#linear-gradient"/><linearGradient id="linear-gradient-273" x1="17.1293" y1="2.5913" x2="17.9274" y2="2.5913" xlink:href="#linear-gradient"/><linearGradient id="linear-gradient-274" x1="16.7587" y1="3.2132" x2="16.9957" y2="3.2132" xlink:href="#linear-gradient"/><linearGradient id="linear-gradient-275" x1="15.2841" y1="4.4773" x2="16.0676" y2="4.4773" xlink:href="#linear-gradient"/><linearGradient id="linear-gradient-276" x1="14.3609" y1="5.4181" x2="15.159" y2="5.4181" xlink:href="#linear-gradient"/><linearGradient id="linear-gradient-277" x1="13.8622" y1="6.3539" x2="14.2309" y2="6.3539" xlink:href="#linear-gradient"/><linearGradient id="linear-gradient-278" x1="16.1795" y1="1.6659" x2="16.9892" y2="1.6659" xlink:href="#linear-gradient"/><linearGradient id="linear-gradient-279" x1="15.2579" y1="2.4724" x2="16.0282" y2="2.4724" xlink:href="#linear-gradient"/><linearGradient id="linear-gradient-280" x1="14.3362" y1="3.6806" x2="15.0867" y2="3.6806" xlink:href="#linear-gradient"/><linearGradient id="linear-gradient-281" x1="13.8688" y1="4.4905" x2="14.2177" y2="4.4905" xlink:href="#linear-gradient"/><linearGradient id="linear-gradient-282" x1="15.2316" y1=".823" x2="16.0479" y2=".823" xlink:href="#linear-gradient"/><linearGradient id="linear-gradient-283" x1="14.31" y1="1.679" x2="15.1394" y2="1.679" xlink:href="#linear-gradient"/><linearGradient id="linear-gradient-284" x1="17.3513" y1="19.381" x2="18.0491" y2="19.381" xlink:href="#linear-gradient"/></defs><path d="M40.754,19.1854c0,2.4362-1.784,4.8988-5.7668,4.8988-1.4115.0144-2.8025-.3396-4.0353-1.0272l-.5399-.3621.9743-3.2329.9743.5991c.8353.5032,1.7898.7738,2.7649.7836.6189,0,2.0408-.1449,2.0408-1.5013,0-.6584-.1515-1.2181-2.0539-1.9753-2.8637-1.0206-4.2593-2.581-4.2593-4.7802-.0197-2.6996,2.2515-4.6749,5.3653-4.6749,1.2227-.0393,2.4351.2349,3.5219.7967l.6583.3555-1.0862,3.1737-.9216-.5004c-.6851-.3621-1.4503-.5455-2.225-.5333-1.6655,0-1.7511,1.0074-1.7511,1.2049,0,.6189.158,1.0798,2.2119,1.8765,1.1314.3736,2.1596,1.0073,3.0019,1.8502.7547.8327,1.1581,1.9251,1.1257,3.0486Z" fill="#232323"/><path d="M53.6503,10.1976c-.6537-.7438-1.4633-1.3346-2.3714-1.7293-.9081-.395-1.8921-.5847-2.8819-.5554-.9899-.0119-1.971.1861-2.8788.5812-.9078.3947-1.7216.9778-2.3877,1.7104-1.4103,1.6448-2.1506,3.7602-2.0736,5.9257,0,4.6882,2.9426,7.9607,7.1557,7.9607,3.6668,0,7.3599-2.5484,7.3599-8.2304.0722-2.0591-.6116-4.0733-1.9222-5.6628ZM48.2982,20.8513c-1.7182,0-3.5746-1.4947-3.5746-4.774,0-3.6409,1.9354-4.9379,3.5943-4.9379,2.4555,0,3.568,2.4886,3.568,4.7933,0,2.4494-1.1059,4.9186-3.5878,4.9186Z" fill="#232323"/><path d="M60.1081,8.3672h-3.5613v15.7169h9.5256v-3.2725h-5.9643v-12.4444Z" fill="#232323"/><path d="M70.2921,8.3672h-3.5614v15.7169h3.5614v-15.7169Z" fill="#232323"/><path d="M84.7926,12.6965c-.3873-.9756-.9792-1.8569-1.7359-2.5844-1.4286-1.3169-3.4694-1.9752-6.2539-1.9752-1.3224-.0003-2.6429.1013-3.9498.3028l-.757.1318v15.2493l.7768.0923c1.1196.1186,2.2447.1758,3.3705.171,2.9624,0,5.3126-.7833,6.7872-2.2649.7669-.8036,1.3634-1.7534,1.7537-2.7936.3903-1.0399.5663-2.1478.5173-3.2575.0519-1.0485-.1215-2.0961-.5088-3.0717ZM81.6611,15.834c-.0198,3.2722-1.7512,5.0369-5.0624,5.0369h-.9413v-9.4815c.4089-.0411.8199-.0608,1.231-.0591,1.626,0,2.8505.4082,3.6536,1.2112.3976.4458.7015.9672.8938,1.5326.1923.5657.2688,1.1639.2254,1.7599Z" fill="#232323"/><path d="M92.7009,8.3474h-4.7991v15.5656h.5398v-6.5056h4.2593c3.0282,0,5.0031-1.7711,5.0031-4.5432s-1.9552-4.5168-5.0031-4.5168ZM92.668,16.9205h-4.2264v-8.0658l4.2264.0196c2.7516,0,4.4962,1.521,4.4962,4.0099,0,2.4953-1.7446,4.0363-4.4962,4.0363Z" fill="#232323"/><path d="M99.9158,12.6932h.5266v2.2519c.1453-.7012.5334-1.3287,1.0958-1.7719.5623-.4432,1.263-.6738,1.9786-.6512.3884-.0072.774.0668,1.1323.2173v.5465c-.3769-.1829-.7927-.271-1.2113-.2568-1.8499,0-2.9954,1.6132-2.9954,3.8782v7.0058h-.5266v-11.2197Z" fill="#232323"/><path d="M109.7378,12.5418c-2.9624,0-4.9373,2.2121-4.9373,5.7611s1.9618,5.7811,4.9373,5.7811,4.95-2.2253,4.95-5.7811c0-3.5622-1.9874-5.7611-4.95-5.7611ZM109.7378,23.5704c-2.653,0-4.3975-2.0212-4.3975-5.2674,0-3.2395,1.7774-5.2674,4.3975-5.2674s4.4234,2.0148,4.4234,5.2674c0,3.2462-1.7706,5.2674-4.4234,5.2674Z" fill="#232323"/><path d="M120.988,12.5418c-2.9691,0-4.9435,2.2121-4.9435,5.7611s1.9679,5.7811,4.9435,5.7811,4.9511-2.2253,4.9511-5.7811c0-3.5622-1.9819-5.7611-4.9511-5.7611ZM120.988,23.5704c-2.6527,0-4.4039-2.0212-4.4039-5.2674,0-3.2395,1.7837-5.2674,4.4039-5.2674s4.4169,2.0148,4.4169,5.2674c0,3.2462-1.7641,5.2674-4.4169,5.2674Z" fill="#232323"/><path d="M128.3806,13.1804h-1.5593v-.4872h1.5593v-2.0082c0-1.7646.9612-2.5086,2.449-2.5086.2796.0023.557.0332.8301.0922v.4741c-.2666-.058-.5375-.0867-.8106-.0856-1.1844,0-1.9278.5728-1.9278,2.0938v1.9753h2.6332v.4543h-2.6332v10.7325h-.5407v-10.7325Z" fill="#232323"/><path d="M13.7108,3.5424l-.0592,24.8889c-2.2841-1.3736-4.2931-3.1598-5.9248-5.2675.237,0,.4806.0329.711.0329,3.568,0,5.1611-2.1991,5.1611-4.3786.0336-1.0133-.3276-2.0001-1.0072-2.7522-.7654-.7491-1.697-1.3063-2.7188-1.6264-1.8367-.7177-1.9749-1.1259-1.9749-1.6724,0-.1843.0922-1.0601,1.5799-1.1259.9348-.0462,1.6523,0,2.3831,0h1.3166l.0592-2.8182h-3.7391c-2.7978,0-4.8254,1.758-4.8254,4.181,0,1.9753,1.2442,3.3647,3.8116,4.2733,1.705.6584,1.8367,1.1588,1.8367,1.7449,0,1.2115-1.2771,1.3168-1.8235,1.3168-.8726-.0069-1.7274-.248-2.4752-.6979l-.869-.5466v.079c-1.762-3.6859-2.4597-7.7906-2.0144-11.8518,0,0,5.9247.079,10.5789-3.7663-.0197-.0263-.0131-.0263-.0066-.0132Z" fill="#232323"/><path d="M13.7174.2041v1.4946c-.4703.3921-.9626.7571-1.4746,1.093-3.1959,2.0207-6.8783,3.1399-10.6579,3.2395-.5737,5.1668.4828,10.3839,3.0216,14.9202.3555.6584.7307,1.2378,1.1191,1.8041,1.6857,2.4486,3.7708,4.5965,6.1683,6.3539l.3621.2634c.4442.3327.9081.6383,1.389.9152v1.7119S-1.6671,23.7695.1498,4.8395c0,0,7.6363.0988,13.5676-4.8395v.2041Z" fill="#232323"/><path d="M24.8428,20.1021c0-.0593.0658-.1185.0921-.1778h-.0921v.1778Z" fill="url(#linear-gradient)"/><path d="M23.9277,21.4979h.1646c.125-.2107.2436-.4214.362-.6584h-.5331l.0065.6584Z" fill="url(#linear-gradient-2)"/><path d="M23.631,21.8064l-.632.0065.0065.6321.632-.0065-.0065-.6321Z" fill="url(#linear-gradient-3)"/><path d="M22.7059,22.7443l-.632.0065.0065.6321.632-.0065-.0065-.6321Z" fill="url(#linear-gradient-4)"/><path d="M21.7874,23.6887l-.632.0066.0065.632.632-.0065-.0065-.6321Z" fill="url(#linear-gradient-5)"/><path d="M20.8601,24.6255h-.4937l-.1383.1581v.4806h.6583l-.0263-.6387Z" fill="url(#linear-gradient-6)"/><path d="M19.9384,25.5736h-.4082l-.2238.237v.4017h.6583l-.0263-.6387Z" fill="url(#linear-gradient-7)"/><path d="M19.0168,26.5152h-.4082l-.2238.2239v.4148h.6583l-.0263-.6387Z" fill="url(#linear-gradient-8)"/><path d="M18.0952,27.4568l-.5003.0066-.1383.1119.0066.5201.6386-.0066-.0066-.6321Z" fill="url(#linear-gradient-9)"/><path d="M17.1688,28.4043l-.6319.0065.0065.6321.6319-.0065-.0065-.6321Z" fill="url(#linear-gradient-10)"/><path d="M16.2438,29.3422l-.632.0065.0065.6321.632-.0065-.0065-.6321Z" fill="url(#linear-gradient-11)"/><path d="M15.3187,30.2867l-.632.0065.0065.6321.632-.0065-.0065-.6321Z" fill="url(#linear-gradient-12)"/><path d="M13.8228,31.2297v.6584h.1053c.0922-.0527.2502-.1449.4543-.2765v-.3621l-.5596-.0197Z" fill="url(#linear-gradient-13)"/><path d="M25.7512,17.7778h.1383c.0856-.2108.1646-.428.2436-.6585h-.3885l.0066.6585Z" fill="url(#linear-gradient-14)"/><path d="M25.4617,18.0478l-.6451.0066.0067.6452.6451-.0066-.0067-.6452Z" fill="url(#linear-gradient-15)"/><path d="M24.5433,18.9856l-.6452.0067.0067.6452.6451-.0066-.0066-.6453Z" fill="url(#linear-gradient-16)"/><path d="M23.5262,19.9309l-.3489.6584h.4476v-.6584h-.0987Z" fill="url(#linear-gradient-17)"/><path d="M22.7033,21.5176v-.125l-.079.125h.079Z" fill="url(#linear-gradient-18)"/><path d="M19.2801,23.7037v.0921l.079-.0921h-.079Z" fill="url(#linear-gradient-19)"/><path d="M18.3585,24.6518v.1383l.1449-.1448-.1449.0065Z" fill="url(#linear-gradient-20)"/><path d="M17.4369,25.5934v.0856l.0987-.0921-.0987.0065Z" fill="url(#linear-gradient-21)"/><path d="M14.1585,30.0049h.237v-.1317l-.237.1317Z" fill="url(#linear-gradient-22)"/><path d="M26.6465,14.9531h.1646c.0593-.2173.1119-.4346.1646-.6584h-.3358l.0066.6584Z" fill="url(#linear-gradient-23)"/><path d="M26.3741,15.2337l-.6583.0068.0068.6583.6583-.0067-.0068-.6584Z" fill="url(#linear-gradient-24)"/><path d="M25.0929,16.1777c-.0724.2239-.1448.4413-.2238.6585h.5858v-.6585h-.362Z" fill="url(#linear-gradient-25)"/><path d="M22.4993,19.0024h-.474v.6585h.125c.1185-.2108.2304-.4346.3489-.6585Z" fill="url(#linear-gradient-26)"/><path d="M21.762,20.3654l-.0066-.4214-.6517.0066.0065.6584.5069-.0065.1449-.2371Z" fill="url(#linear-gradient-27)"/><path d="M20.8371,20.8871l-.6583.0068.0068.6584.6582-.0068-.0067-.6584Z" fill="url(#linear-gradient-28)"/><path d="M19.912,21.8316l-.6583.0067.0068.6584.6583-.0067-.0068-.6584Z" fill="url(#linear-gradient-29)"/><path d="M18.9935,22.7694l-.6583.0067.0068.6584.6582-.0068-.0067-.6583Z" fill="url(#linear-gradient-30)"/><path d="M18.0619,23.7138l-.6583.0068.0068.6584.6582-.0068-.0067-.6584Z" fill="url(#linear-gradient-31)"/><path d="M17.1434,24.6583l-.6582.0067.0067.6584.6583-.0067-.0068-.6584Z" fill="url(#linear-gradient-32)"/><path d="M16.2184,25.5961l-.6583.0068.0067.6584.6583-.0068-.0067-.6584Z" fill="url(#linear-gradient-33)"/><path d="M15.2999,26.5406l-.6582.0067.0067.6584.6583-.0067-.0068-.6584Z" fill="url(#linear-gradient-34)"/><path d="M14.3757,28.0296v-.5465h-.553v.6584h.3555c.0679-.0334.1339-.0708.1974-.1119Z" fill="url(#linear-gradient-35)"/><path d="M26.6137,12.4247v.6584h.6188c0-.079,0-.158.0461-.2436v-.4214l-.6648.0066Z" fill="url(#linear-gradient-36)"/><path d="M26.3635,13.3596h-.5464l-.1185.5597v.1053h.6583l.0066-.665Z" fill="url(#linear-gradient-37)"/><path d="M23.8487,15.2494v.2699l.079-.2699h-.079Z" fill="url(#linear-gradient-38)"/><path d="M23.592,16.3424v-.1581h-.6583v.6584h.4806l.1777-.5003Z" fill="url(#linear-gradient-39)"/><path d="M22.6679,17.1285l-.6649.0069.0068.6649.6649-.0068-.0068-.665Z" fill="url(#linear-gradient-40)"/><path d="M21.7428,18.073l-.6649.0068.0068.665.6649-.0069-.0068-.6649Z" fill="url(#linear-gradient-41)"/><path d="M20.8177,19.0109l-.6648.0068.0068.665.6648-.0068-.0068-.665Z" fill="url(#linear-gradient-42)"/><path d="M19.8927,19.9552l-.6649.0069.0068.6649.6649-.0068-.0068-.665Z" fill="url(#linear-gradient-43)"/><path d="M18.9742,20.8997l-.6648.0068.0068.665.6649-.0069-.0069-.6649Z" fill="url(#linear-gradient-44)"/><path d="M18.0492,21.8441l-.6649.0068.0069.665.6648-.0068-.0068-.665Z" fill="url(#linear-gradient-45)"/><path d="M17.1341,23.4535l-.6649.0065-.0066-.5531h.6649l.0066.5466Z" fill="url(#linear-gradient-46)"/><path d="M16.193,23.7326l-.6649.0066.0066.665.6649-.0066-.0066-.665Z" fill="url(#linear-gradient-47)"/><path d="M15.2807,24.6709l-.6648.0068.0068.665.6648-.0068-.0068-.665Z" fill="url(#linear-gradient-48)"/><path d="M14.3626,25.6132l-.5135.0066v.6649l.5135-.0065v-.665Z" fill="url(#linear-gradient-49)"/><path d="M27.5221,10.2848h.125c0-.2239.0396-.4477.0527-.6584h-.1843l.0066.6584Z" fill="url(#linear-gradient-50)"/><path d="M27.2671,10.5432l-.678.007.007.6781.678-.0069-.007-.6782Z" fill="url(#linear-gradient-51)"/><path d="M26.1133,11.4897c-.0328.2304-.0592.4543-.0921.6584h.3094v-.6584h-.2173Z" fill="url(#linear-gradient-52)"/><path d="M24.3556,13.3729h-.5333v.6584h.3885c.0592-.2042.1053-.428.1448-.6584Z" fill="url(#linear-gradient-53)"/><path d="M23.5855,14.9926h-.4213c.0795-.2146.1434-.4345.1908-.6584h.2239l.0066.6584Z" fill="url(#linear-gradient-54)"/><path d="M20.814,17.8239h-.6583v-.1252c.237-.079.4564-.1646.6583-.2567v.3819Z" fill="url(#linear-gradient-55)"/><path d="M19.88,18.0856l-.678.0069.0069.6782.678-.007-.0069-.6781Z" fill="url(#linear-gradient-56)"/><path d="M18.9615,19.0234l-.678.0069.007.6781.678-.0069-.007-.6781Z" fill="url(#linear-gradient-57)"/><path d="M18.0366,19.9744l-.678.0069.007.6781.6779-.0069-.0069-.6781Z" fill="url(#linear-gradient-58)"/><path d="M15.2776,23.4799l-.678.0065-.0066-.5925.678.0066.0066.5794Z" fill="url(#linear-gradient-59)"/><path d="M14.3429,23.7432h-.4938v.6782h.5003l-.0065-.6782Z" fill="url(#linear-gradient-60)"/><path d="M27.4958,8.428h.2699v-.6584h-.2897l.0197.6584Z" fill="url(#linear-gradient-61)"/><path d="M27.2546,8.6735l-.6912.0071.0072.6913.6911-.0071-.007-.6913Z" fill="url(#linear-gradient-62)"/><path d="M26.2648,9.6197c0,.2305,0,.4609-.0396.6584h.1053v-.665l-.0658.0066Z" fill="url(#linear-gradient-63)"/><path d="M24.4925,11.5002l-.6911.007.0072.6914.6911-.0072-.0072-.6912Z" fill="url(#linear-gradient-64)"/><path d="M23.5723,13.1687h-.1119c-.0006-.2315-.0182-.4625-.0527-.6914h.158l.0066.6914Z" fill="url(#linear-gradient-65)"/><path d="M18.0293,18.7918l-.6714.0066.0065-.6914.6583-.0066.0066.6914Z" fill="url(#linear-gradient-66)"/><path d="M14.152,21.8733v.6914h-.3029v-.6914h.3029Z" fill="url(#linear-gradient-67)"/><path d="M27.7394,5.8667h-.2765v.7177h.2963c0-.2502-.0066-.4872-.0197-.7177Z" fill="url(#linear-gradient-68)"/><path d="M27.2412,6.8122l-.6977.007.0069.6979.6979-.007-.007-.6979Z" fill="url(#linear-gradient-69)"/><path d="M24.4733,9.6305l-.6979.0072.0073.6979.6977-.0072-.0072-.6979Z" fill="url(#linear-gradient-70)"/><path d="M23.5591,11.2725h-.52c-.06-.1357-.1282-.2675-.204-.3951v-.3029h.6977l.0263.698Z" fill="url(#linear-gradient-71)"/><path d="M20.2741,13.4058c-.0092.2418-.0605.4802-.1514.7045h-.0329v-.7045h.1843Z" fill="url(#linear-gradient-72)"/><path d="M19.8594,14.5185c-.1934.203-.4328.3565-.6979.4478v-.6189h.7044l-.0065.1711Z" fill="url(#linear-gradient-73)"/><path d="M14.1651,20.0033l-.0065.698h-.3095l.0066-.698h.3094Z" fill="url(#linear-gradient-74)"/><path d="M27.2291,4.9275l-.711.0073.0074.7111.711-.0073-.0074-.7111Z" fill="url(#linear-gradient-75)"/><path d="M26.1923,5.8732c0,.237.0396.4741.0527.7111h.0856v-.7111h-.1383Z" fill="url(#linear-gradient-76)"/><path d="M24.4531,7.7685l-.711.0071.007.7111.711-.0071-.007-.7111Z" fill="url(#linear-gradient-77)"/><path d="M23.5355,8.6986l-.711.0073.0074.7111.711-.0073-.0074-.7111Z" fill="url(#linear-gradient-78)"/><path d="M22.6177,10.3572h-.1514c-.1079-.1223-.2246-.2367-.3489-.3424-.0678-.0666-.1404-.1282-.2173-.1844v-.1778h.711l.0066.7045Z" fill="url(#linear-gradient-79)"/><path d="M19.842,12.4764l-.711.0074.0074.7111.711-.0074-.0074-.7111Z" fill="url(#linear-gradient-80)"/><path d="M18.9206,13.4205l-.711.0072.007.7111.711-.007-.007-.7112Z" fill="url(#linear-gradient-81)"/><path d="M17.9984,14.3586l-.7109.0074.0073.7111.711-.0074-.0074-.7111Z" fill="url(#linear-gradient-82)"/><path d="M14.1717,18.1267v.7111l-.316.0066v-.7111l.316-.0066Z" fill="url(#linear-gradient-83)"/><path d="M26.3306,4.3391l-.7241-.0724v.4675h.7175l.0066-.3951Z" fill="url(#linear-gradient-84)"/><path d="M25.3695,4.9448l-.7242.0066.0066.5728.7241.0593-.0065-.6387Z" fill="url(#linear-gradient-85)"/><path d="M23.5196,6.8411h-.7176v.7243h.7176v-.7243Z" fill="url(#linear-gradient-86)"/><path d="M22.5979,7.7733l-.7241.0075.0074.7242.7242-.0075-.0075-.7242Z" fill="url(#linear-gradient-87)"/><path d="M21.683,9.4354h-.3819c-.1109-.0614-.2251-.1164-.3423-.1646v-.5531h.7242v.7177Z" fill="url(#linear-gradient-88)"/><path d="M18.9049,11.674l.0066.5926-.7176.0066-.0065-.665.7175.0658Z" fill="url(#linear-gradient-89)"/><path d="M17.9858,12.4889l-.7241.0075.0074.7242.7241-.0075-.0074-.7242Z" fill="url(#linear-gradient-90)"/><path d="M17.0674,13.4268l-.7241.0074.0075.7243.7241-.0075-.0075-.7242Z" fill="url(#linear-gradient-91)"/><path d="M16.1357,14.3713l-.7241.0074.0075.7243.7241-.0075-.0075-.7242Z" fill="url(#linear-gradient-92)"/><path d="M14.1848,16.2567l-.0065.7243h-.3226v-.7177l.3291-.0066Z" fill="url(#linear-gradient-93)"/><path d="M24.4412,4.7473l-.0066-.6453-.4608-.079h-.2765l.0066.7309.7373-.0066Z" fill="url(#linear-gradient-94)"/><path d="M23.5064,4.958h-.7307v.3095l.7373.1251-.0066-.4346Z" fill="url(#linear-gradient-95)"/><path d="M21.8607,6.5844v.0329h.1448l-.1448-.0329Z" fill="url(#linear-gradient-96)"/><path d="M21.6601,6.8415l-.7307.0075.0076.7308.7307-.0075-.0076-.7308Z" fill="url(#linear-gradient-97)"/><path d="M20.735,7.7859l-.7306.0075.0075.7308.7307-.0075-.0076-.7308Z" fill="url(#linear-gradient-98)"/><path d="M19.8199,8.9218c-.237-.0461-.4806-.0856-.7373-.1119v-.0724h.7307l.0066.1844Z" fill="url(#linear-gradient-99)"/><path d="M17.055,12.2864l-.7373.0132-.0065-.7046.7373.0066.0065.6847Z" fill="url(#linear-gradient-100)"/><path d="M16.1231,12.5015l-.7307.0076.0075.7308.7307-.0076-.0075-.7308Z" fill="url(#linear-gradient-101)"/><path d="M15.1914,13.4394l-.7307.0076.0076.7308.7307-.0075-.0076-.7309Z" fill="url(#linear-gradient-102)"/><path d="M14.277,14.3868h-.4213v.7309h.4279l-.0066-.7309Z" fill="url(#linear-gradient-103)"/><path d="M23.072,3.8321l-.316-.0658v.0724l.316-.0066Z" fill="url(#linear-gradient-104)"/><path d="M22.5725,4.0339l-.7438.0077.0076.744.7439-.0077-.0077-.744Z" fill="url(#linear-gradient-105)"/><path d="M19.9911,6.6634h.7439v-.2897l-.7439-.1909v.4807Z" fill="url(#linear-gradient-106)"/><path d="M19.804,6.8606l-.7439.0077.0077.744.7438-.0077-.0076-.744Z" fill="url(#linear-gradient-107)"/><path d="M18.8789,7.7985l-.7438.0077.0076.744.7439-.0077-.0077-.744Z" fill="url(#linear-gradient-108)"/><path d="M17.9569,8.744v.0132l-.7439-.0066.7439-.0066Z" fill="url(#linear-gradient-109)"/><path d="M15.192,12.3127l-.7439.0066-.0065-.7243h.7438l.0066.7177Z" fill="url(#linear-gradient-110)"/><path d="M14.2638,12.5103l-.4081.0066v.744l.4147-.0066-.0066-.744Z" fill="url(#linear-gradient-111)"/><path d="M21.6434,3.8519v-.3819c-.2502-.0724-.5003-.1449-.757-.2305v.6584l.757-.0461Z" fill="url(#linear-gradient-112)"/><path d="M19.9582,4.0494v.4609l.7571.237-.0066-.7045-.7505.0066Z" fill="url(#linear-gradient-113)"/><path d="M18.8654,5.9347l-.757.0076.0076.7572.757-.0076-.0076-.7572Z" fill="url(#linear-gradient-114)"/><path d="M17.9478,6.8732l-.757.0078.0078.7572.757-.0078-.0078-.7572Z" fill="url(#linear-gradient-115)"/><path d="M17.0161,7.8111l-.757.0078.0078.7572.757-.0078-.0078-.7572Z" fill="url(#linear-gradient-116)"/><path d="M14.2111,10.6403v.7572h-.3489v-.7506l.3489-.0066Z" fill="url(#linear-gradient-117)"/><path d="M19.772,3.1147l-.7635.0079.0078.7638.7636-.0079-.0079-.7637Z" fill="url(#linear-gradient-118)"/><path d="M18.7205,4.056l.1317.0527v-.0527h-.1317Z" fill="url(#linear-gradient-119)"/><path d="M17.1669,5.7745h.7702v-.3095c-.2502-.1054-.5069-.2173-.7702-.3424v.6518Z" fill="url(#linear-gradient-120)"/><path d="M17.0034,5.9414l-.7636.0079.0079.7637.7636-.0079-.0079-.7637Z" fill="url(#linear-gradient-121)"/><path d="M16.0784,6.8858l-.7636.0079.0079.7637.7635-.0079-.0078-.7638Z" fill="url(#linear-gradient-122)"/><path d="M15.1534,7.8237l-.7635.0079.0078.7637.7636-.0079-.0079-.7637Z" fill="url(#linear-gradient-123)"/><path d="M14.2244,8.7704l-.0066.7638-.3555.0066v-.7704h.3621Z" fill="url(#linear-gradient-124)"/><path d="M18.8457,2.963v-.4872l-.6583-.2831h-.1449v.777l.8032-.0066Z" fill="url(#linear-gradient-125)"/><path d="M17.1143,3.1341v.2041c.2567.1317.52.2568.7769.3753v-.586l-.7769.0066Z" fill="url(#linear-gradient-126)"/><path d="M16.219,4.8527h.395l-.395-.2107v.2107Z" fill="url(#linear-gradient-127)"/><path d="M16.0724,5.0161l-.7769.008.008.7769.7767-.008-.0079-.7769Z" fill="url(#linear-gradient-128)"/><path d="M15.1407,5.954l-.7767.008.008.7769.7767-.008-.008-.7769Z" fill="url(#linear-gradient-129)"/><path d="M14.2177,6.9004h-.3555v.777l.3687-.0066-.0131-.7704Z" fill="url(#linear-gradient-130)"/><path d="M17.8976,2.0411c-.2633-.1251-.52-.2568-.7834-.3951v.4082l.7834-.0132Z" fill="url(#linear-gradient-131)"/><path d="M16.1927,2.2057l.0066.6123.2963.1712h.4871l-.0065-.7901-.7835.0066Z" fill="url(#linear-gradient-132)"/><path d="M15.1342,4.0889l-.79.0079.0079.7901.79-.0079-.0079-.7901Z" fill="url(#linear-gradient-133)"/><path d="M14.2045,5.0238l-.3423.0066v.7901l.3555-.0066-.0132-.7901Z" fill="url(#linear-gradient-134)"/><path d="M16.0404,1.2767l-.7966.0082.0082.7967.7965-.0082-.0081-.7967Z" fill="url(#linear-gradient-135)"/><path d="M14.1914,3.2922l-.1646-.1317h-.158v.7901h.3292l-.0066-.6584Z" fill="url(#linear-gradient-136)"/><path d="M15.113,1.1523l-.0132-.7506-.079-.0593-.7307.0066.0132.8099.8097-.0066Z" fill="url(#linear-gradient-137)"/><path d="M14.1783,1.3169h-.1843l.1843.1514v-.1514Z" fill="url(#linear-gradient-138)"/><path d="M23.039,23.2164l.316-.4806h-.316v.4806Z" fill="url(#linear-gradient-139)"/><path d="M22.0977,24.3161h.1448c.1515-.2108.3095-.4214.4609-.6585h-.6122l.0066.6585Z" fill="url(#linear-gradient-140)"/><path d="M21.1694,24.6255v.6584h.3292l.3028-.3753v-.2633l-.632-.0198Z" fill="url(#linear-gradient-141)"/><path d="M20.2413,25.567v.6584h.4608l.1777-.1974v-.4413l-.6385-.0197Z" fill="url(#linear-gradient-142)"/><path d="M19.9535,26.5058l-.6319.0065.0065.6321.632-.0065-.0066-.6321Z" fill="url(#linear-gradient-143)"/><path d="M19.035,27.4502l-.6319.0065.0065.6321.6319-.0065-.0065-.6321Z" fill="url(#linear-gradient-144)"/><path d="M18.1034,28.388l-.6319.0065.0065.6321.6319-.0065-.0065-.6321Z" fill="url(#linear-gradient-145)"/><path d="M16.5548,29.3399v.6584h.1514c.158-.1185.316-.2502.474-.3819v-.2568l-.6254-.0197Z" fill="url(#linear-gradient-146)"/><path d="M15.6266,30.2881v.4938c.1974-.1383.4081-.2898.6583-.461v-.0328h-.6583Z" fill="url(#linear-gradient-147)"/><path d="M14.7049,31.4008l.283-.1777h-.283v.1777Z" fill="url(#linear-gradient-148)"/><path d="M24.8428,19.628h.237c.0987-.2173.204-.428.2962-.6584h-.5398l.0066.6584Z" fill="url(#linear-gradient-149)"/><path d="M24.5529,19.9205l-.6451.0066.0066.6452.6452-.0066-.0067-.6452Z" fill="url(#linear-gradient-150)"/><path d="M23.6344,20.8648l-.6451.0066.0067.6453.6451-.0067-.0067-.6452Z" fill="url(#linear-gradient-151)"/><path d="M22.7099,21.8074h-.2699c-.1186.1909-.2436.3819-.3687.5663v.0856h.6583l-.0197-.6519Z" fill="url(#linear-gradient-152)"/><path d="M21.7948,23.3943v-.6057l-.441.6123.441-.0065Z" fill="url(#linear-gradient-153)"/><path d="M20.6099,24.3621h.2633v-.3161l-.2633.3161Z" fill="url(#linear-gradient-154)"/><path d="M19.8002,25.2774h.1515v-.1646c-.0527.0592-.1053.1119-.1515.1646Z" fill="url(#linear-gradient-155)"/><path d="M19.0234,26.2189v-.1119l-.1119.1185.1119-.0066Z" fill="url(#linear-gradient-156)"/><path d="M17.924,27.167h.1778v-.1711l-.1778.1711Z" fill="url(#linear-gradient-157)"/><path d="M16.8312,28.1087h.3489v-.2831l-.3489.2831Z" fill="url(#linear-gradient-158)"/><path d="M16.2519,28.5696c-.2173.1646-.4147.316-.6123.4543h.6583l-.0461-.4543Z" fill="url(#linear-gradient-159)"/><path d="M15.3237,29.3465h-.1383l-.5003.3358v.316h.6583l-.0197-.6518Z" fill="url(#linear-gradient-160)"/><path d="M13.8425,30.2946v.6453l.5662-.0066-.0066-.6452-.5596.0065Z" fill="url(#linear-gradient-161)"/><path d="M26.6598,15.4864c0-.0855.0527-.1711.0724-.2567h-.0724v.2567Z" fill="url(#linear-gradient-162)"/><path d="M25.7315,16.1712v.6584h.4937l.158-.4741v-.1843h-.6517Z" fill="url(#linear-gradient-163)"/><path d="M25.4718,17.1063l-.6583.0067.0068.6584.6583-.0067-.0068-.6584Z" fill="url(#linear-gradient-164)"/><path d="M24.1186,18.7061h.4345v-.6584h-.1449c-.0987.2239-.1974.4478-.2897.6584Z" fill="url(#linear-gradient-165)"/><path d="M21.1168,20.8857v.5003c.1119-.1646.2173-.3357.3292-.5069l-.3292.0066Z" fill="url(#linear-gradient-166)"/><path d="M20.8337,21.8206h-.6583v.6584h.1514l.5069-.6584Z" fill="url(#linear-gradient-167)"/><path d="M19.9318,23.0452v-.2567h-.6583v.6584h.3226l.3357-.4017Z" fill="url(#linear-gradient-168)"/><path d="M19.0032,23.7042l-.6583.0068.0068.6583.6582-.0067-.0067-.6584Z" fill="url(#linear-gradient-169)"/><path d="M18.0886,25.0666v-.4213h-.6583v.6584h.4082l.2501-.2371Z" fill="url(#linear-gradient-170)"/><path d="M17.1603,25.9292v-.3423h-.6583v.6584h.2832l.3752-.3161Z" fill="url(#linear-gradient-171)"/><path d="M16.2387,26.5349h-.6583v.6584c.2042-.1448.4148-.3094.6583-.4872v-.1712Z" fill="url(#linear-gradient-172)"/><path d="M14.6589,27.4831v.3688l.553-.3754-.553.0066Z" fill="url(#linear-gradient-173)"/><path d="M26.6399,14.0247h.4016c.0527-.2173.0987-.4411.1449-.6584h-.553l.0065.6584Z" fill="url(#linear-gradient-174)"/><path d="M26.371,14.2922l-.6648.0068.0068.6649.6649-.0068-.0069-.6649Z" fill="url(#linear-gradient-175)"/><path d="M25.4616,15.9013v-.6585h-.079l-.1974.6585h.2764Z" fill="url(#linear-gradient-176)"/><path d="M23.3156,17.1193h-.3753v.6585h.0987c.0987-.2042.1909-.428.2765-.6585Z" fill="url(#linear-gradient-177)"/><path d="M22.6774,18.0633l-.6648.0068.0068.665.6649-.0068-.0069-.665Z" fill="url(#linear-gradient-178)"/><path d="M21.759,19.0077l-.6649.0068.0068.665.6649-.0068-.0068-.665Z" fill="url(#linear-gradient-179)"/><path d="M20.834,19.9456l-.6648.0068.0068.665.6648-.0069-.0068-.6649Z" fill="url(#linear-gradient-180)"/><path d="M19.9155,20.89l-.6648.0068.0068.665.6648-.0068-.0068-.665Z" fill="url(#linear-gradient-181)"/><path d="M18.9839,21.8279l-.6649.0069.0069.6649.6648-.0068-.0068-.665Z" fill="url(#linear-gradient-182)"/><path d="M18.0654,22.7724l-.6649.0068.0068.665.6649-.0069-.0068-.6649Z" fill="url(#linear-gradient-183)"/><path d="M17.1404,23.7234l-.6648.0068.0068.665.6648-.0068-.0068-.665Z" fill="url(#linear-gradient-184)"/><path d="M16.2219,24.6611l-.6648.0069.0068.6649.6648-.0068-.0068-.665Z" fill="url(#linear-gradient-185)"/><path d="M15.2903,25.6056l-.6649.0069.0069.6649.6648-.0068-.0068-.665Z" fill="url(#linear-gradient-186)"/><path d="M14.3757,26.5482h-.5266v.6715l.5333-.0065-.0066-.665Z" fill="url(#linear-gradient-187)"/><path d="M27.5352,11.1933l.1119-.6584h-.0921l-.0198.6584Z" fill="url(#linear-gradient-188)"/><path d="M27.29,11.4779l-.678.007.0069.6781.678-.0069-.0069-.6782Z" fill="url(#linear-gradient-189)"/><path d="M25.8632,13.1029h.5069v-.6585h-.3819c-.0394.2108-.079.4346-.1251.6585Z" fill="url(#linear-gradient-190)"/><path d="M24.1647,14.3078h-.3291v.6584h.1514c.0659-.1975.125-.4279.1777-.6584Z" fill="url(#linear-gradient-191)"/><path d="M23.5986,15.9276h-.6583v-.3885c.0461-.0922.0987-.1909.1383-.2898h.5331l-.0131.6782Z" fill="url(#linear-gradient-192)"/><path d="M22.677,16.8692h-.6583v-.191c.0947-.0804.1849-.1661.2699-.2567.0724-.079.1448-.1515.2107-.2371h.1908l-.0131.6849Z" fill="url(#linear-gradient-193)"/><path d="M21.7554,17.8107h-.6912v-.4939l.316-.1777h.3423l.0329.6716Z" fill="url(#linear-gradient-194)"/><path d="M20.8213,18.0759l-.678.0069.007.6781.678-.0069-.007-.6781Z" fill="url(#linear-gradient-195)"/><path d="M19.9028,19.0203l-.678.0069.007.6782.678-.007-.007-.6781Z" fill="url(#linear-gradient-196)"/><path d="M18.9778,19.9582l-.678.0069.0069.6781.678-.0069-.0069-.6781Z" fill="url(#linear-gradient-197)"/><path d="M18.0527,20.9027l-.678.0069.0069.6781.678-.0069-.0069-.6781Z" fill="url(#linear-gradient-198)"/><path d="M16.2125,23.4666l-.6781.0066-.0065-.5728h.6846v.5662Z" fill="url(#linear-gradient-199)"/><path d="M15.278,23.7417l-.678.0068.0067.6781.678-.0067-.0067-.6782Z" fill="url(#linear-gradient-200)"/><path d="M14.3626,24.6716l-.5135.0065v.6782l.5201-.0066-.0066-.6781Z" fill="url(#linear-gradient-201)"/><path d="M27.5155,9.363h.2042v-.6584h-.2436l.0394.6584Z" fill="url(#linear-gradient-202)"/><path d="M27.2772,9.6016l-.6911.0071.0072.6913.6911-.0071-.0072-.6913Z" fill="url(#linear-gradient-203)"/><path d="M26.1396,11.2395h.1909v-.7046h-.1448c0,.2502-.0198.4807-.0462.7046Z" fill="url(#linear-gradient-204)"/><path d="M24.5005,12.4444h-.6583v.6914h.5793c.0131-.237.0527-.4609.079-.6914Z" fill="url(#linear-gradient-205)"/><path d="M23.5855,14.0642h-.1843c.0333-.2291.0531-.46.0592-.6914h.1185l.0066.6914Z" fill="url(#linear-gradient-206)"/><path d="M19.8924,17.8371h-.2568l.2568-.0659v.0659Z" fill="url(#linear-gradient-207)"/><path d="M18.9651,18.0884l-.6912.0072.0072.6914.6911-.0072-.007-.6914Z" fill="url(#linear-gradient-208)"/><path d="M14.356,23.493l-.5069.0066v-.6914l.3029-.0066-.0066.0922h.204l.0066.5991Z" fill="url(#linear-gradient-209)"/><path d="M27.7722,6.7951h-.2897v.6979h.2897c.0066-.2502.0066-.4609,0-.6979Z" fill="url(#linear-gradient-210)"/><path d="M27.2572,7.7405l-.6979.007.007.6979.6977-.007-.0069-.6979Z" fill="url(#linear-gradient-211)"/><path d="M26.2779,9.3761h.0527v-.6979h-.0461c.0066.237,0,.4675-.0066.6979Z" fill="url(#linear-gradient-212)"/><path d="M24.4829,10.5653l-.6977.0072.0073.6979.6977-.0072-.0073-.6979Z" fill="url(#linear-gradient-213)"/><path d="M23.5723,12.2074h-.204c-.0493-.2385-.1197-.472-.2107-.698h.4081l.0066.698Z" fill="url(#linear-gradient-214)"/><path d="M14.1586,20.9317l-.0066.6979-.3029.0066v-.698l.3095-.0065Z" fill="url(#linear-gradient-215)"/><path d="M27.6801,4.9251h-.2239v.7111h.2633c-.0065-.237-.0197-.4741-.0394-.7111Z" fill="url(#linear-gradient-216)"/><path d="M27.2387,5.8623l-.711.0073.0074.7111.7109-.0073-.0073-.7111Z" fill="url(#linear-gradient-217)"/><path d="M26.2845,7.5193h.0461v-.7111h-.0658c.0066.237.0131.4741.0197.7111Z" fill="url(#linear-gradient-218)"/><path d="M24.4768,8.6955l-.7109.0073.0073.7111.711-.0073-.0074-.7111Z" fill="url(#linear-gradient-219)"/><path d="M23.5518,9.6334l-.711.0073.0074.7111.7109-.0073-.0073-.7111Z" fill="url(#linear-gradient-220)"/><path d="M20.2741,13.1687h-.1974v-.6979h.0328c.1045.218.1606.4561.1646.6979Z" fill="url(#linear-gradient-221)"/><path d="M19.8648,13.4045l-.711.0074.0074.7111.7109-.0074-.0073-.7111Z" fill="url(#linear-gradient-222)"/><path d="M18.9444,15.0584h-.0988l-.6121.0066-.0066-.7112.711-.0065.0066.6914v.0197Z" fill="url(#linear-gradient-223)"/><path d="M14.1651,19.0617v.7112h-.3094v-.7112h.3094Z" fill="url(#linear-gradient-224)"/><path d="M27.2325,4.4049c-.1843,0-.4279,0-.7176-.0461v.3621h.7242l-.0066-.3161Z" fill="url(#linear-gradient-225)"/><path d="M26.1726,5.6164v.0395h.158v-.7243h-.7176v.6584c.3489.0263.5596.0263.5596.0263Z" fill="url(#linear-gradient-226)"/><path d="M24.461,6.8938c-.1448,0-.3884,0-.7241-.0329v.6584h.7241v-.6255Z" fill="url(#linear-gradient-227)"/><path d="M23.5379,7.7645l-.7241.0072.0073.7243.7241-.0072-.0073-.7243Z" fill="url(#linear-gradient-228)"/><path d="M22.614,8.7081l-.7241.0075.0075.7242.7241-.0075-.0075-.7242Z" fill="url(#linear-gradient-229)"/><path d="M19.8528,12.1218v.1317l-.7241.0066-.0066-.5334.7307.3951Z" fill="url(#linear-gradient-230)"/><path d="M18.927,12.4727l-.7241.0074.0075.7243.7241-.0075-.0075-.7242Z" fill="url(#linear-gradient-231)"/><path d="M18.002,13.4172l-.7242.0075.0075.7242.7241-.0075-.0074-.7242Z" fill="url(#linear-gradient-232)"/><path d="M17.077,14.3616l-.7241.0075.0075.7242.7241-.0075-.0075-.7242Z" fill="url(#linear-gradient-233)"/><path d="M14.1783,17.1918l-.0066.7177-.316.0066v-.7243h.3226Z" fill="url(#linear-gradient-234)"/><path d="M25.376,4.7407v-.5004c-.2304,0-.474-.0658-.7307-.1054v.6123l.7307-.0066Z" fill="url(#linear-gradient-235)"/><path d="M23.6973,5.4058l.7373.0988v-.5531h-.7373v.4543Z" fill="url(#linear-gradient-236)"/><path d="M22.6013,6.8318l-.7307.0075.0075.7308.7307-.0075-.0075-.7308Z" fill="url(#linear-gradient-237)"/><path d="M21.6698,7.7763l-.7307.0075.0076.7308.7306-.0075-.0075-.7308Z" fill="url(#linear-gradient-238)"/><path d="M20.7613,9.2181c-.2408-.0903-.4871-.165-.7373-.2239v-.2436h.7307l.0066.4675Z" fill="url(#linear-gradient-239)"/><path d="M17.9899,12.2798l-.7307.0066-.0066-.6847h.7307l.0066.6781Z" fill="url(#linear-gradient-240)"/><path d="M17.0576,12.4854l-.7306.0075.0075.7308.7307-.0075-.0076-.7308Z" fill="url(#linear-gradient-241)"/><path d="M16.1326,13.4364l-.7307.0075.0076.7308.7307-.0075-.0076-.7308Z" fill="url(#linear-gradient-242)"/><path d="M15.2143,14.3741l-.7307.0076.0075.7308.7307-.0075-.0075-.7309Z" fill="url(#linear-gradient-243)"/><path d="M14.1848,15.3153v.7374h-.3291v-.7309l.3291-.0065Z" fill="url(#linear-gradient-244)"/><path d="M23.5072,4.0177l-.7439.0077.0077.744.7438-.0077-.0076-.744Z" fill="url(#linear-gradient-245)"/><path d="M21.8475,5.0436c.2502.0593.5003.1185.7439.1646v-.2436h-.7504l.0065.079Z" fill="url(#linear-gradient-246)"/><path d="M20.9258,6.6568h.7439v-.0724l-.7439-.158v.2305Z" fill="url(#linear-gradient-247)"/><path d="M20.7386,6.851l-.7438.0077.0076.744.7439-.0077-.0077-.744Z" fill="url(#linear-gradient-248)"/><path d="M19.8135,7.7954l-.7438.0077.0077.744.7438-.0077-.0077-.744Z" fill="url(#linear-gradient-249)"/><path d="M16.1335,12.3061l-.7439.0066-.0066-.7177h.7439l.0066.7111Z" fill="url(#linear-gradient-250)"/><path d="M15.2015,12.4978l-.7438.0077.0076.744.7439-.0077-.0077-.744Z" fill="url(#linear-gradient-251)"/><path d="M14.277,13.4452l-.4213.0066v.744l.4279-.0066-.0066-.744Z" fill="url(#linear-gradient-252)"/><path d="M22.5783,3.8453v-.1251l-.7571-.1975v.3292l.7571-.0066Z" fill="url(#linear-gradient-253)"/><path d="M21.6509,4.0369l-.757.0076.0075.7572.7571-.0076-.0076-.7572Z" fill="url(#linear-gradient-254)"/><path d="M19.0498,5.9259v.7572h.757v-.5531l-.6517-.2041h-.1053Z" fill="url(#linear-gradient-255)"/><path d="M18.8824,6.8636l-.757.0078.0078.7572.757-.0078-.0078-.7572Z" fill="url(#linear-gradient-256)"/><path d="M17.9573,7.808l-.7569.0078.0078.7572.7569-.0078-.0078-.7572Z" fill="url(#linear-gradient-257)"/><path d="M17.0353,8.744v.0066h-.3094l.3094-.0066Z" fill="url(#linear-gradient-258)"/><path d="M14.2704,12.326l-.4147.0065.0066-.7571h.4015v.0197l.0066.7309Z" fill="url(#linear-gradient-259)"/><path d="M19.9582,3.8782l.7636-.0066-.0066-.6848-.2304-.079-.5398.0066.0131.7638Z" fill="url(#linear-gradient-260)"/><path d="M19.0234,4.1811l.7702.2765v-.4082h-.7702v.1317Z" fill="url(#linear-gradient-261)"/><path d="M18.1084,5.7613h.5661l-.5661-.2173v.2173Z" fill="url(#linear-gradient-262)"/><path d="M17.9381,5.9383l-.7635.0079.0078.7637.7636-.0079-.0079-.7638Z" fill="url(#linear-gradient-263)"/><path d="M17.0197,6.8761l-.7636.0079.0079.7638.7635-.0079-.0078-.7637Z" fill="url(#linear-gradient-264)"/><path d="M16.0946,7.8206l-.7635.0079.0078.7637.7636-.0079-.0079-.7637Z" fill="url(#linear-gradient-265)"/><path d="M14.2177,9.7054l-.0066.7638h-.3489v-.7638h.3555Z" fill="url(#linear-gradient-266)"/><path d="M19.7804,2.9498v-.0922l-.7769-.3095v.4082l.7769-.0066Z" fill="url(#linear-gradient-267)"/><path d="M18.0821,3.786l.2567.1119.52-.0066-.0066-.7704-.7767.0066.0066.6584Z" fill="url(#linear-gradient-268)"/><path d="M16.2322,5.0107l.0065.777.7769-.0066-.0066-.7309-.0921-.0461-.6846.0066Z" fill="url(#linear-gradient-269)"/><path d="M16.0819,5.9508l-.7767.008.008.7769.7767-.008-.008-.7769Z" fill="url(#linear-gradient-270)"/><path d="M15.1634,6.8887l-.7767.008.008.7769.7767-.008-.008-.7769Z" fill="url(#linear-gradient-271)"/><path d="M14.2375,7.8288l-.3753.0066v.777l.3819-.0066-.0066-.777Z" fill="url(#linear-gradient-272)"/><path d="M17.9193,2.1922l-.79.0081.0081.7901.79-.0081-.0081-.7901Z" fill="url(#linear-gradient-273)"/><path d="M16.9957,3.2922v-.158h-.237l.237.158Z" fill="url(#linear-gradient-274)"/><path d="M15.2841,4.0823v.7901h.7835v-.3161c-.2633-.1448-.5201-.3029-.7769-.4741h-.0066Z" fill="url(#linear-gradient-275)"/><path d="M15.1509,5.019l-.79.0081.0081.7901.79-.0081-.0081-.7901Z" fill="url(#linear-gradient-276)"/><path d="M14.2244,5.9589l-.3621.0066v.7835h.3687l-.0065-.7901Z" fill="url(#linear-gradient-277)"/><path d="M16.186,2.0675l.8032-.0066-.0066-.4872-.5398-.3095-.2633.0066.0065.7967Z" fill="url(#linear-gradient-278)"/><path d="M15.2579,2.2255l.1119.079c.2282.1492.4476.2941.6583.4346v-.5333h-.7702v.0198Z" fill="url(#linear-gradient-279)"/><path d="M14.3428,3.9506h.7439c-.2502-.1712-.5003-.349-.7505-.5399l.0066.5399Z" fill="url(#linear-gradient-280)"/><path d="M14.2111,4.0889h-.3423v.8033l.3489-.0066-.0066-.7967Z" fill="url(#linear-gradient-281)"/><path d="M16.0479,1.1391v-.1119c-.2502-.1712-.5465-.3687-.8163-.5333v.6584l.8163-.0132Z" fill="url(#linear-gradient-282)"/><path d="M14.31,1.5407c.2436.1909.4871.3687.7373.5399h.0921v-.8033h-.8294v.2634Z" fill="url(#linear-gradient-283)"/><path d="M18.0491,19.7201l-.6912.0066-.0066-.3753v-.3095h.0066l.6846-.0066.0066.6847Z" fill="url(#linear-gradient-284)"/></svg>