<?xml version="1.0" encoding="UTF-8"?>
<svg id="Layer_1" xmlns="http://www.w3.org/2000/svg" width="134.2067" height="57" version="1.1" viewBox="0 0 134.2067 57">
  <!-- Generator: Adobe Illustrator 29.8.1, SVG Export Plug-In . SVG Version: 2.1.1 Build 2)  -->
  <g>
    <rect x="83.4539" y="7.2692" width="46.2756" height="46.2756" rx="10" ry="10" transform="translate(49.6328 125.4968) rotate(-75)" fill="#232323" stroke="#232323" stroke-linecap="round" stroke-linejoin="round" stroke-width="1"/>
    <g>
      <rect x="84.4759" y="3.4551" width="46.2756" height="46.2756" rx="10" ry="10" transform="translate(54.0744 123.6571) rotate(-75)" fill="#aae7c0" stroke="#232323" stroke-linecap="round" stroke-linejoin="round" stroke-width="1"/>
      <path d="M109.6803,27.9752h0c-.1296-.0245-.7961-.1612-2.2597-.5533-1.1641-.3119-1.9812-.5683-2.2675-.6597h0c-4.4456-1.4033-7.5937-3.0861-7.3424-4.0238.2513-.9376,3.8186-.82,8.3712.1844l-.8198,3.0595c.2885.1,1.1175.3755,2.2816.6874,1.3969.3743,2.112.5035,2.241.5256l.8195-3.0584c4.4355,1.4028,7.5762,3.0837,7.3255,4.0193s-3.8099.8212-8.3534-.183h0s.004.0022.004.0022ZM110.7932,23.8216l.7336-2.7377,6.2649,1.6786,1.1187-4.1748-17.057-4.5704-1.1187,4.1748,6.2638,1.6784-.7332,2.7367c-5.154-1.1303-9.253-1.1478-9.5768.0608s3.2351,3.2419,8.2634,4.8411l-2.3507,8.773,4.5272,1.2131,2.3516-8.7762c5.1423,1.1272,9.2347,1.144,9.5582-.0635.3236-1.2075-3.2258-3.2383-8.2457-4.8352h0l.0008.0014h-.0001Z" fill="#232323" fill-rule="evenodd"/>
    </g>
  </g>
  <g>
    <rect x="43.4525" y="7.2692" width="46.2756" height="46.2756" rx="10" ry="10" transform="translate(19.9845 86.8584) rotate(-75)" fill="#232323" stroke="#232323" stroke-linecap="round" stroke-linejoin="round" stroke-width="1"/>
    <g>
      <rect x="44.4745" y="3.4551" width="46.2756" height="46.2756" rx="10" ry="10" transform="translate(24.4261 85.0187) rotate(-75)" fill="#f0f69b" stroke="#232323" stroke-linecap="round" stroke-linejoin="round" stroke-width="1"/>
      <path d="M63.7499,23.6466l5.5032-3.1773,3.1789,5.5061,3.2021-1.8488-5.0277-8.7082-8.7054,5.0261,1.8488,3.2021h0ZM56.4375,23.5987l3.2021-1.8488,1.8488,3.2021-3.2021,1.8488-1.8488-3.2021ZM62.7941,27.2135l3.1773,5.5032,5.5061-3.1789,1.8491,3.2011-8.7086,5.0288-5.0261-8.7054-.0024-.0042s3.2046-1.8446,3.2047-1.8446ZM73.7359,28.2339l3.2021-1.8488,1.8488,3.2021-3.2021,1.8488-1.8488-3.2021ZM70.1741,27.2771l.0022.0006-.0006.0022-3.2503,1.8766-1.8745-3.245-.0033-.0057.0054-.0022.5684-.3292.2763-.1595,2.4013-1.3855,1.8757,3.249-.0008-.0014Z" fill="#232323"/>
    </g>
  </g>
  <g>
    <rect x="3.4551" y="7.2692" width="46.2756" height="46.2756" rx="10" ry="10" transform="translate(-9.6608 48.2239) rotate(-75)" fill="#232323" stroke="#232323" stroke-linecap="round" stroke-linejoin="round" stroke-width="1"/>
    <g>
      <rect x="4.4771" y="3.4551" width="46.2756" height="46.2756" rx="10" ry="10" transform="translate(-5.2192 46.3842) rotate(-75)" fill="#b3d8f5" stroke="#232323" stroke-linecap="round" stroke-linejoin="round" stroke-width="1"/>
      <path d="M34.1895,28.5791l-7.716,2.2742-5.5496-5.8287,9.6854-9.6063,3.5802,13.1609h0ZM26.1248,32.1541l-5.5496-5.8287,4.0454,11.4422,9.2246-7.8865-7.7204,2.273h0Z" fill="#232323"/>
    </g>
  </g>
</svg>