<svg width="40" height="43" viewBox="0 0 40 43" fill="none" xmlns="http://www.w3.org/2000/svg">
    <g clip-path="url(#clip0_2652_641)">
    <path d="M11.754 42.5066C6.95979 42.5066 2.8575 38.7503 2.41268 33.9561L0.880493 16.2124C0.633367 13.6917 1.42417 11.2699 3.00578 9.34231C4.63681 7.41473 6.91038 6.27795 9.38164 6.03083L27.1253 4.49864C27.4218 4.46569 27.7019 4.44922 27.9655 4.44922C32.7598 4.44922 36.8621 8.20553 37.3069 12.9998L38.8391 30.7434C39.0862 33.2641 38.2954 35.686 36.7138 37.6135C35.0827 39.5411 32.8092 40.6779 30.3379 40.925L12.5943 42.4572C12.3307 42.4902 12.0506 42.5066 11.754 42.5066Z" fill="#232323"/>
    <path fill-rule="evenodd" clip-rule="evenodd" d="M37.7995 12.9979L39.3316 30.6922C39.8259 36.1289 35.8224 40.9232 30.3363 41.4174L12.642 42.9496C12.3455 42.9826 12.0489 42.999 11.7524 42.999C6.71099 42.999 2.36158 39.1439 1.91675 33.9542L0.384565 16.26C-0.109687 10.8232 3.94319 6.02898 9.37996 5.53473L27.0742 4.00256C27.3707 3.96961 27.6673 3.95312 27.9638 3.95312C33.0052 3.95312 37.3546 7.80829 37.7995 12.9979ZM27.173 4.99105L9.42938 6.52325C7.05697 6.72095 4.93169 7.85772 3.39951 9.68645C1.86732 11.4658 1.17537 13.7887 1.37307 16.1612L2.90525 33.9048C3.30066 38.4519 7.20524 42.0105 11.7524 42.0105C12.016 42.0105 12.2796 41.9941 12.5432 41.9611L30.2868 40.4289C32.6592 40.2312 34.7845 39.0945 36.3167 37.2657C37.8489 35.437 38.5903 33.1634 38.3431 30.791L36.811 13.0474C36.4156 8.50025 32.511 4.94163 27.9638 4.94163C27.7002 4.94163 27.4366 4.9581 27.173 4.99105Z" fill="#232323"/>
    <path d="M11.4102 38.5535C6.61596 38.5535 2.51367 34.7972 2.06884 30.0029L0.536656 12.2593C0.28953 9.78803 1.08034 7.31677 2.71137 5.43862C4.29298 3.51103 6.56653 2.32483 9.08722 2.0777L26.7814 0.545519C27.078 0.512569 27.3581 0.496094 27.6217 0.496094C32.4159 0.496094 36.5182 4.25241 36.963 9.09608L38.4952 26.7903C38.7423 29.311 37.9516 31.7328 36.3699 33.6604C34.7389 35.588 32.4653 36.7742 29.9941 36.9719L12.2504 38.5535C11.9868 38.5535 11.7068 38.5535 11.4102 38.5535Z" fill="#FEA6CC"/>
    <path fill-rule="evenodd" clip-rule="evenodd" d="M37.4557 9.04481L38.9879 26.739C39.4821 32.2252 35.4787 37.0195 30.0419 37.4643L12.2983 39.0459C12.0017 39.0459 11.7052 39.0459 11.4086 39.0459C6.36724 39.0459 2.01783 35.1908 1.573 30.0505L0.040815 12.3069C-0.453437 6.87011 3.59943 2.07586 9.0362 1.58161L26.7304 0.0494252C27.027 0.0164751 27.3235 0 27.6201 0C32.7109 0 37.0109 3.90459 37.4557 9.04481ZM26.8293 1.03793L9.08563 2.57011C6.71322 2.81724 4.58794 3.90459 3.05576 5.73333C1.52357 7.56206 0.831619 9.83562 1.02932 12.208L2.5615 29.9517C2.95691 34.4988 6.86149 38.0574 11.4086 38.0574C11.6722 38.0574 11.9358 38.0574 12.1994 38.0574L29.9431 36.4758C34.8362 36.0804 38.4442 31.731 37.9994 26.8379L36.4672 9.14367C36.0718 4.54712 32.1672 0.988504 27.6201 0.988504C27.3565 0.988504 27.0929 1.00498 26.8293 1.03793Z" fill="#232323"/>
    <path fill-rule="evenodd" clip-rule="evenodd" d="M21.174 16.7925C21.7918 16.4185 22.5719 15.88 23.337 15.1709C23.5437 15.5049 23.5915 15.8088 23.5252 16.0641C23.4781 16.244 23.3727 16.4066 23.2268 16.5418C23.0687 16.6879 22.8649 16.8026 22.6346 16.8759C22.1976 17.0154 21.6714 17.0075 21.174 16.7925ZM21.588 19.991L22.4898 20.3907C20.8301 21.5066 20.5207 23.3181 20.1176 25.0921C19.391 23.4244 18.7492 21.7023 16.9106 20.9153L17.7222 20.3545C17.8022 20.3163 17.8678 20.2546 17.9097 20.1781C17.9516 20.1017 17.9676 20.0145 17.9554 19.929C17.7253 18.3247 18.1067 17.5699 18.6694 17.0655C18.8713 16.8849 19.1005 16.7821 19.3341 16.7601C19.5678 16.7382 19.8122 16.7964 20.0442 16.9363C20.6911 17.3269 21.2065 17.9974 21.2795 19.6164C21.2835 19.7027 21.3154 19.7854 21.3708 19.8527C21.4262 19.92 21.5022 19.9684 21.588 19.991ZM18.6655 9.64958C19.6582 9.58227 20.6685 9.67549 21.5642 9.95743C22.1845 10.153 22.7724 10.4331 23.3139 10.7832C23.5584 10.9412 23.7622 11.097 23.9874 11.2771C24.5461 11.2435 25.3035 10.5665 25.6286 9.96911C25.1728 12.0993 22.4352 14.8216 20.4687 15.9497C20.4678 15.9494 20.4672 15.949 20.4665 15.9487C20.0722 15.7101 19.6446 15.6125 19.2299 15.6515C18.8152 15.6905 18.4134 15.8661 18.0704 16.174C18.0698 16.1744 18.0693 16.1751 18.0685 16.1754C15.9261 15.4337 12.729 13.2694 11.8842 11.2615C12.3148 11.7878 13.1852 12.3117 13.7403 12.2407C13.9281 12.0217 14.0993 11.8307 14.31 11.6298C14.7767 11.1849 15.3021 10.8001 15.8751 10.4924C16.7026 10.0484 17.6778 9.76849 18.6655 9.64958ZM17.5326 17.1349C16.856 16.8826 15.9891 16.499 15.1053 15.9449C14.9644 16.3116 14.9741 16.6191 15.0868 16.8576C15.1667 17.0256 15.3005 17.1656 15.4691 17.2713C15.6517 17.3853 15.8733 17.4601 16.1132 17.4892C16.5685 17.5447 17.084 17.4388 17.5326 17.1349Z" fill="#232323"/>
    <path fill-rule="evenodd" clip-rule="evenodd" d="M24.1671 14.3119C24.5792 13.8247 24.9329 13.2951 25.2132 12.8258L25.4046 13.1088C26.0264 14.0803 26.3952 15.0714 26.5028 16.2158L26.6724 18.0318L26.7708 18.9722C27.0262 21.2797 27.7613 23.5694 29.1296 25.5995L26.508 23.918L25.036 26.8017L23.0648 25.314L20.5937 30.1552L17.2634 25.8596L15.6042 27.6887L13.6204 25.1299L11.3581 27.2706C12.324 25.0211 12.6194 22.6344 12.4403 20.3198L12.3616 19.3775L12.1897 17.5617C12.0821 16.4173 12.2596 15.3748 12.6896 14.3044L12.8248 13.9907C13.1877 14.3996 13.6338 14.8539 14.1296 15.2558L14.0147 15.5549C13.7915 16.1358 13.7586 16.7649 14.0287 17.335C14.2027 17.7021 14.4857 18.0043 14.8345 18.2226C15.1732 18.4346 15.5624 18.5623 15.9619 18.611C16.2222 18.6428 16.4841 18.6413 16.7415 18.6092C16.7124 18.9462 16.7185 19.2923 16.7497 19.6426L14.5676 21.1505L16.4361 21.9503C16.5854 22.0143 16.729 22.0901 16.8653 22.1771C18.4509 23.3163 19.6873 27.0113 20.4663 28.7996C20.8983 26.8974 21.4241 23.0367 22.7697 21.6219C22.8874 21.511 23.0143 21.4098 23.1491 21.3191L24.8358 20.1849L22.4108 19.1103C22.3761 18.7603 22.3175 18.4191 22.2261 18.0935C22.485 18.077 22.7426 18.0297 22.9924 17.95C23.3758 17.8276 23.7345 17.6295 24.0276 17.3582C24.3296 17.0787 24.5514 16.729 24.6538 16.3359C24.813 15.7255 24.6634 15.1136 24.3358 14.5844L24.1671 14.3119Z" fill="#232323"/>
    </g>
    <defs>
    <clipPath id="clip0_2652_641">
    <rect width="40" height="43" fill="white"/>
    </clipPath>
    </defs>
    </svg>
    