<svg width="14" height="16" viewBox="0 0 14 16" fill="none" xmlns="http://www.w3.org/2000/svg">
    <path fill-rule="evenodd" clip-rule="evenodd" d="M8.43433 5.70705C8.94417 5.46268 9.59289 5.10295 10.2424 4.61008C10.3793 4.88346 10.3943 5.12201 10.3238 5.31464C10.2738 5.45039 10.1796 5.56847 10.0557 5.66241C9.9215 5.76393 9.75395 5.83784 9.56872 5.87778C9.21728 5.95389 8.80695 5.90945 8.43433 5.70705ZM8.52272 8.21094L9.19761 8.58568C7.81961 9.3281 7.445 10.7067 7 12.0494C6.55506 10.7067 6.18039 9.3281 4.80245 8.58568L5.47734 8.21094C5.54262 8.18723 5.59842 8.14425 5.63675 8.08818C5.67507 8.03211 5.69394 7.96582 5.69067 7.8988C5.62884 6.6413 5.98206 6.08521 6.4585 5.73605C6.62939 5.61098 6.81595 5.54818 7 5.54818C7.18406 5.54818 7.37061 5.61098 7.54156 5.73605C8.018 6.08521 8.37122 6.6413 8.30939 7.8988C8.30612 7.96582 8.32499 8.03211 8.36331 8.08818C8.40164 8.14425 8.45744 8.18723 8.52272 8.21094ZM7 0C7.78011 0.0201332 8.56217 0.165712 9.24089 0.448913C9.71089 0.645278 10.1494 0.904661 10.5466 1.21483C10.7259 1.35485 10.8736 1.49013 11.0362 1.64585C11.4749 1.66043 12.1161 1.19192 12.4138 0.753528C11.9015 2.36793 9.56384 4.27439 7.94545 5.00388C7.94478 5.00362 7.94434 5.00324 7.94384 5.00292C7.65339 4.78974 7.32672 4.68314 7 4.68314C6.67328 4.68314 6.34667 4.78974 6.05622 5.00292C6.05572 5.00319 6.05528 5.00367 6.05461 5.00388C4.43617 4.27439 2.09856 2.36793 1.58628 0.753528C1.88389 1.19192 2.52506 1.66043 2.96378 1.64585C3.1265 1.49018 3.27417 1.35485 3.45345 1.21483C3.85056 0.904661 4.28911 0.645278 4.75911 0.448913C5.43789 0.165712 6.21995 0.0201332 7 0ZM5.56567 5.70705C5.05589 5.46268 4.40711 5.10295 3.75767 4.61008C3.62072 4.88346 3.60572 5.12201 3.67622 5.31464C3.72628 5.45039 3.8205 5.56847 3.94433 5.66241C4.07856 5.76393 4.24611 5.83784 4.43133 5.87778C4.78278 5.95389 5.19306 5.90945 5.56567 5.70705Z" fill="black"/>
    <path fill-rule="evenodd" clip-rule="evenodd" d="M10.9537 4.00614C11.3113 3.65928 11.6263 3.27536 11.8797 2.93278L12.0083 3.16557C12.4226 3.96219 12.6378 4.75561 12.6378 5.64852L12.6369 7.06543L12.6447 7.79995C12.6747 9.60318 13.0806 11.4276 14 13.0972L12.0763 11.6061L10.7151 13.7294L9.28511 12.4353L7 16L4.71489 12.4354L3.28494 13.7294L1.92378 11.6061L0 13.0973C0.919444 11.4277 1.32533 9.60324 1.35539 7.8L1.36317 7.06549L1.36228 5.64858C1.36228 4.75561 1.57744 3.96219 1.99178 3.16562L2.12039 2.93283C2.37372 3.27542 2.68872 3.65928 3.04633 4.00619L2.93467 4.22916C2.71772 4.66221 2.64589 5.14642 2.81489 5.60692C2.92383 5.90353 3.12267 6.15789 3.379 6.35206C3.62789 6.54063 3.92244 6.66773 4.23083 6.73449C4.43172 6.77796 4.63639 6.79585 4.83972 6.78976C4.79228 7.04829 4.77156 7.31643 4.77022 7.58964L2.95556 8.59716L4.35589 9.3517C4.46781 9.41202 4.57436 9.48113 4.67444 9.55832C5.82894 10.5547 6.52306 13.5025 7.00006 14.9423C7.47711 13.5025 8.17117 10.5547 9.32572 9.55832C9.4258 9.48112 9.53235 9.41201 9.64428 9.3517L11.0446 8.59716L9.22989 7.58964C9.22856 7.31643 9.20783 7.04829 9.16039 6.78976C9.36372 6.79585 9.56839 6.77796 9.76928 6.73449C10.0777 6.66773 10.3723 6.54063 10.6211 6.35206C10.8774 6.15789 11.0763 5.90353 11.1852 5.60692C11.3542 5.14642 11.2823 4.66226 11.0654 4.22916L10.9537 4.00614Z" fill="black"/>
    </svg>
    